<?xml version="1.0" encoding="UTF-8" standalone="no"?>
<!-- Created with Inkscape (http://www.inkscape.org/) -->

<svg
   version="1.1"
   id="svg1"
   width="1122.6667"
   height="793.33331"
   viewBox="0 0 1122.6667 793.33331"
   xmlns="http://www.w3.org/2000/svg"
   xmlns:svg="http://www.w3.org/2000/svg">
  <defs
     id="defs1" />
  <g
     id="g6972"
     transform="translate(-3428.0002)">
    <text
       id="text6972"
       xml:space="preserve"
       transform="matrix(0.09772726,0,0,0.09767483,3592.8517,65.523532)"><tspan
         id="tspan6972"
         style="font-variant:normal;font-weight:700;font-size:133px;font-family:'IBM Plex Sans';writing-mode:lr-tb;fill:#000000;fill-opacity:1;fill-rule:nonzero;stroke:none"
         x="0"
         dx="0 -0.0135 -0.011625 0 -0.011 -0.01325 -0.0067500002 -0.80150002 0 -0.0067500002 -0.012"
         y="0">Description</tspan></text>
    <text
       id="text6973"
       xml:space="preserve"
       transform="matrix(0.09772726,0,0,0.09767483,3760.4438,66.744468)"><tspan
         id="tspan6973"
         style="font-variant:normal;font-weight:700;font-size:133px;font-family:'IBM Plex Sans';writing-mode:lr-tb;fill:#000000;fill-opacity:1;fill-rule:nonzero;stroke:none"
         x="0"
         dx="0 -0.0076250001 -0.011625 -0.011 0 -0.0067500002 -0.012"
         y="0">Section</tspan></text>
    <text
       id="text6974"
       xml:space="preserve"
       transform="matrix(0.09772726,0,0,0.09767483,3885.5978,65.387703)"><tspan
         id="tspan6974"
         style="font-variant:normal;font-weight:700;font-size:133px;font-family:'IBM Plex Sans';writing-mode:lr-tb;fill:#000000;fill-opacity:1;fill-rule:nonzero;stroke:none"
         x="0"
         dx="0 -1.33375 -0.011625 0 -0.0097500002"
         y="0">Length</tspan></text>
    <text
       id="text6975"
       xml:space="preserve"
       transform="matrix(0.09772726,0,0,0.09767483,3994.7413,65.523532)"><tspan
         id="tspan6975"
         style="font-variant:normal;font-weight:700;font-size:133px;font-family:'IBM Plex Sans';writing-mode:lr-tb;fill:#000000;fill-opacity:1;fill-rule:nonzero;stroke:none"
         x="0"
         dx="0 -0.0088750003 0 -0.0051250001 0 0 -0.0067500002"
         y="0">Quantity</tspan></text>
    <text
       id="text6976"
       xml:space="preserve"
       transform="matrix(0.13030301,0,0,0.13023311,3527.4381,116.35947)"><tspan
         id="tspan6976"
         style="font-variant:normal;font-weight:700;font-size:133px;font-family:'IBM Plex Sans';writing-mode:lr-tb;fill:#000000;fill-opacity:1;fill-rule:nonzero;stroke:none"
         x="0"
         y="0">A</tspan></text>
    <text
       id="text6977"
       xml:space="preserve"
       transform="matrix(0.13030301,0,0,0.13023311,3527.2732,164.71665)"><tspan
         id="tspan6977"
         style="font-variant:normal;font-weight:700;font-size:133px;font-family:'IBM Plex Sans';writing-mode:lr-tb;fill:#000000;fill-opacity:1;fill-rule:nonzero;stroke:none"
         x="0"
         y="0">B</tspan></text>
    <text
       id="text6978"
       xml:space="preserve"
       transform="matrix(0.13030301,0,0,0.13023311,3527.55,213.07383)"><tspan
         id="tspan6978"
         style="font-variant:normal;font-weight:700;font-size:133px;font-family:'IBM Plex Sans';writing-mode:lr-tb;fill:#000000;fill-opacity:1;fill-rule:nonzero;stroke:none"
         x="0"
         y="0">C</tspan></text>
    <text
       id="text6979"
       xml:space="preserve"
       transform="matrix(0.13030301,0,0,0.13023311,3527.1001,261.43101)"><tspan
         id="tspan6979"
         style="font-variant:normal;font-weight:700;font-size:133px;font-family:'IBM Plex Sans';writing-mode:lr-tb;fill:#000000;fill-opacity:1;fill-rule:nonzero;stroke:none"
         x="0"
         y="0">D</tspan></text>
    <text
       id="text6980"
       xml:space="preserve"
       transform="matrix(0.13030301,0,0,0.13023311,3527.9236,309.78819)"><tspan
         id="tspan6980"
         style="font-variant:normal;font-weight:700;font-size:133px;font-family:'IBM Plex Sans';writing-mode:lr-tb;fill:#000000;fill-opacity:1;fill-rule:nonzero;stroke:none"
         x="0"
         y="0">E</tspan></text>
    <text
       id="text6981"
       xml:space="preserve"
       transform="matrix(0.09772726,0,0,0.09767483,3593.4747,114.69263)"><tspan
         id="tspan6981"
         style="font-variant:normal;font-weight:normal;font-size:133px;font-family:'IBM Plex Sans';writing-mode:lr-tb;fill:#000000;fill-opacity:1;fill-rule:nonzero;stroke:none"
         x="0"
         dx="0 -0.011125 -0.0063749999 -0.80225003 -0.0053750002 0 -0.0063749999"
         y="0">tasseau</tspan></text>
    <text
       id="text6982"
       xml:space="preserve"
       transform="matrix(0.09772726,0,0,0.09767483,3593.4747,162.10206)"><tspan
         id="tspan6982"
         style="font-variant:normal;font-weight:normal;font-size:133px;font-family:'IBM Plex Sans';writing-mode:lr-tb;fill:#000000;fill-opacity:1;fill-rule:nonzero;stroke:none"
         x="0"
         dx="0 -0.011125 -0.0063749999 -0.80225003 -0.0053750002 0 -0.0063749999 -0.01275 -0.013 0 -0.01125 -0.01275"
         y="0">tasseau	long</tspan></text>
    <text
       id="text6983"
       xml:space="preserve"
       transform="matrix(0.09772726,0,0,0.09767483,3592.7479,210.01055)"><tspan
         id="tspan6983"
         style="font-variant:normal;font-weight:normal;font-size:133px;font-family:'IBM Plex Sans';writing-mode:lr-tb;fill:#000000;fill-opacity:1;fill-rule:nonzero;stroke:none"
         x="0"
         dx="0 -0.015 -0.01125 -0.54237503 0 -0.0063749999"
         y="0">poteau</tspan></text>
    <text
       id="text6984"
       xml:space="preserve"
       transform="matrix(0.09772726,0,0,0.09767483,3593.2411,259.06977)"><tspan
         id="tspan6984"
         style="font-variant:normal;font-weight:normal;font-size:133px;font-family:'IBM Plex Sans';writing-mode:lr-tb;fill:#000000;fill-opacity:1;fill-rule:nonzero;stroke:none"
         x="0"
         dx="0 0 -0.011125 -0.0063749999 -0.80212498 0 -0.68599999"
         y="0">étagère</tspan></text>
    <text
       id="text6985"
       xml:space="preserve"
       transform="matrix(0.09772726,0,0,0.09767483,3593.2411,307.42695)"><tspan
         id="tspan6985"
         style="font-variant:normal;font-weight:normal;font-size:133px;font-family:'IBM Plex Sans';writing-mode:lr-tb;fill:#000000;fill-opacity:1;fill-rule:nonzero;stroke:none"
         x="0"
         dx="0 0 -0.011125 -0.0063749999 -0.80212498 0 -0.68599999 0 -0.013"
         y="0">étagère	90</tspan></text>
    <text
       id="text6986"
       xml:space="preserve"
       transform="matrix(0.09772726,0,0,0.09767483,3783.199,114.8483)"><tspan
         id="tspan6986"
         style="font-variant:normal;font-weight:normal;font-size:133px;font-family:'IBM Plex Mono';writing-mode:lr-tb;fill:#000000;fill-opacity:1;fill-rule:nonzero;stroke:none"
         x="0"
         y="0">3*3</tspan></text>
    <text
       id="text6987"
       xml:space="preserve"
       transform="matrix(0.09772726,0,0,0.09767483,3783.199,163.20549)"><tspan
         id="tspan6987"
         style="font-variant:normal;font-weight:normal;font-size:133px;font-family:'IBM Plex Mono';writing-mode:lr-tb;fill:#000000;fill-opacity:1;fill-rule:nonzero;stroke:none"
         x="0"
         y="0">3*3</tspan></text>
    <text
       id="text6988"
       xml:space="preserve"
       transform="matrix(0.09772726,0,0,0.09767483,3783.199,211.56267)"><tspan
         id="tspan6988"
         style="font-variant:normal;font-weight:normal;font-size:133px;font-family:'IBM Plex Mono';writing-mode:lr-tb;fill:#000000;fill-opacity:1;fill-rule:nonzero;stroke:none"
         x="0"
         y="0">3*3</tspan></text>
    <text
       id="text6989"
       xml:space="preserve"
       transform="matrix(0.09772726,0,0,0.09767483,3759.4665,259.91985)"><tspan
         id="tspan6989"
         style="font-variant:normal;font-weight:normal;font-size:133px;font-family:'IBM Plex Mono';writing-mode:lr-tb;fill:#000000;fill-opacity:1;fill-rule:nonzero;stroke:none"
         x="0"
         y="0">1.8*30</tspan></text>
    <text
       id="text6990"
       xml:space="preserve"
       transform="matrix(0.09772726,0,0,0.09767483,3759.4665,308.27703)"><tspan
         id="tspan6990"
         style="font-variant:normal;font-weight:normal;font-size:133px;font-family:'IBM Plex Mono';writing-mode:lr-tb;fill:#000000;fill-opacity:1;fill-rule:nonzero;stroke:none"
         x="0"
         y="0">1.8*30</tspan></text>
    <text
       id="text6991"
       xml:space="preserve"
       transform="matrix(0.09772726,0,0,0.09767483,3911.9551,114.8483)"><tspan
         id="tspan6991"
         style="font-variant:normal;font-weight:normal;font-size:133px;font-family:'IBM Plex Mono';writing-mode:lr-tb;fill:#000000;fill-opacity:1;fill-rule:nonzero;stroke:none"
         x="0"
         y="0">23</tspan></text>
    <text
       id="text6992"
       xml:space="preserve"
       transform="matrix(0.09772726,0,0,0.09767483,3911.7597,163.20549)"><tspan
         id="tspan6992"
         style="font-variant:normal;font-weight:normal;font-size:133px;font-family:'IBM Plex Mono';writing-mode:lr-tb;fill:#000000;fill-opacity:1;fill-rule:nonzero;stroke:none"
         x="0"
         y="0">25</tspan></text>
    <text
       id="text6993"
       xml:space="preserve"
       transform="matrix(0.09772726,0,0,0.09767483,3903.9614,211.56267)"><tspan
         id="tspan6993"
         style="font-variant:normal;font-weight:normal;font-size:133px;font-family:'IBM Plex Mono';writing-mode:lr-tb;fill:#000000;fill-opacity:1;fill-rule:nonzero;stroke:none"
         x="0"
         y="0">235</tspan></text>
    <text
       id="text6994"
       xml:space="preserve"
       transform="matrix(0.09772726,0,0,0.09767483,3911.6177,259.91985)"><tspan
         id="tspan6994"
         style="font-variant:normal;font-weight:normal;font-size:133px;font-family:'IBM Plex Mono';writing-mode:lr-tb;fill:#000000;fill-opacity:1;fill-rule:nonzero;stroke:none"
         x="0"
         y="0">60</tspan></text>
    <text
       id="text6995"
       xml:space="preserve"
       transform="matrix(0.09772726,0,0,0.09767483,3911.7215,308.27703)"><tspan
         id="tspan6995"
         style="font-variant:normal;font-weight:normal;font-size:133px;font-family:'IBM Plex Mono';writing-mode:lr-tb;fill:#000000;fill-opacity:1;fill-rule:nonzero;stroke:none"
         x="0"
         y="0">89</tspan></text>
    <text
       id="text6996"
       xml:space="preserve"
       transform="matrix(0.09772726,0,0,0.09767483,4032.5618,114.8483)"><tspan
         id="tspan6996"
         style="font-variant:normal;font-weight:normal;font-size:133px;font-family:'IBM Plex Mono';writing-mode:lr-tb;fill:#000000;fill-opacity:1;fill-rule:nonzero;stroke:none"
         x="0"
         y="0">78</tspan></text>
    <text
       id="text6997"
       xml:space="preserve"
       transform="matrix(0.09772726,0,0,0.09767483,4040.4777,163.12765)"><tspan
         id="tspan6997"
         style="font-variant:normal;font-weight:normal;font-size:133px;font-family:'IBM Plex Mono';writing-mode:lr-tb;fill:#000000;fill-opacity:1;fill-rule:nonzero;stroke:none"
         x="0"
         y="0">6</tspan></text>
    <text
       id="text6998"
       xml:space="preserve"
       transform="matrix(0.09772726,0,0,0.09767483,4032.5618,211.56267)"><tspan
         id="tspan6998"
         style="font-variant:normal;font-weight:normal;font-size:133px;font-family:'IBM Plex Mono';writing-mode:lr-tb;fill:#000000;fill-opacity:1;fill-rule:nonzero;stroke:none"
         x="0"
         y="0">18</tspan></text>
    <text
       id="text6999"
       xml:space="preserve"
       transform="matrix(0.09772726,0,0,0.09767483,4032.3404,259.91985)"><tspan
         id="tspan6999"
         style="font-variant:normal;font-weight:normal;font-size:133px;font-family:'IBM Plex Mono';writing-mode:lr-tb;fill:#000000;fill-opacity:1;fill-rule:nonzero;stroke:none"
         x="0"
         y="0">44</tspan></text>
    <text
       id="text7000"
       xml:space="preserve"
       transform="matrix(0.09772726,0,0,0.09767483,4040.4639,308.35486)"><tspan
         id="tspan7000"
         style="font-variant:normal;font-weight:normal;font-size:133px;font-family:'IBM Plex Mono';writing-mode:lr-tb;fill:#000000;fill-opacity:1;fill-rule:nonzero;stroke:none"
         x="0"
         y="0">2</tspan></text>
    <path
       id="path7000"
       d="m 91.987694,17.44 h 0.1705 m 0.1143,0 h 0.2286 m 0.1143,0 h 0.2286 m 0.1143,0 h 0.2286 m 0.1143,0 h 0.2286 m 0.1143,0 h 0.2286 m 0.1143,0 h 0.2286 m 0.1143,0 h 0.2286 m 0.1143,0 h 0.2286 m 0.1143,0 h 0.2286 m 0.1143,0 h 0.2286 m 0.1143,0 h 0.2286 m 0.1143,0 h 0.2286 m 0.1143,0 h 0.2286 m 0.1143,0 h 0.2286 m 0.1143,0 h 0.2286 m 0.1143,0 h 0.2286 m 0.1143,0 h 0.2286 m 0.1143,0 h 0.2286 m 0.1143,0 h 0.2286 m 0.1143,0 h 0.2286 m 0.1143,0 h 0.2286 m 0.1143,0 h 0.2286 m 0.1143,0 h 0.228596 m 0.1143,0 h 0.2286 m 0.1143,0 h 0.2286 m 0.1143,0 h 0.2286 m 0.1143,0 h 0.2286 m 0.1143,0 h 0.2286 m 0.1143,0 h 0.2286 m 0.1143,0 h 0.2286 m 0.1143,0 h 0.2286 m 0.1143,0 h 0.2286 m 0.1143,0 h 0.2286 m 0.1143,0 h 0.2286 m 0.1143,0 h 0.2286 m 0.1143,0 h 0.2286 m 0.1143,0 h 0.2286 m 0.1143,0 h 0.2286 m 0.1143,0 h 0.2286 m 0.1143,0 h 0.2286 m 0.1143,0 h 0.2286 m 0.1143,0 h 0.2286 m 0.1143,0 h 0.2286 m 0.1143,0 h 0.1705"
       style="fill:none;stroke:#000000;stroke-width:0.018;stroke-linecap:round;stroke-linejoin:round;stroke-miterlimit:10;stroke-dasharray:none;stroke-opacity:1"
       transform="matrix(37.799327,0,0,-37.779048,26.060608,793.36)" />
    <path
       id="path7001"
       d="m 91.987694,16.16 h 0.1705 m 0.1143,0 h 0.2286 m 0.1143,0 h 0.2286 m 0.1143,0 h 0.2286 m 0.1143,0 h 0.2286 m 0.1143,0 h 0.2286 m 0.1143,0 h 0.2286 m 0.1143,0 h 0.2286 m 0.1143,0 h 0.2286 m 0.1143,0 h 0.2286 m 0.1143,0 h 0.2286 m 0.1143,0 h 0.2286 m 0.1143,0 h 0.2286 m 0.1143,0 h 0.2286 m 0.1143,0 h 0.2286 m 0.1143,0 h 0.2286 m 0.1143,0 h 0.2286 m 0.1143,0 h 0.2286 m 0.1143,0 h 0.2286 m 0.1143,0 h 0.2286 m 0.1143,0 h 0.2286 m 0.1143,0 h 0.2286 m 0.1143,0 h 0.2286 m 0.1143,0 h 0.228596 m 0.1143,0 h 0.2286 m 0.1143,0 h 0.2286 m 0.1143,0 h 0.2286 m 0.1143,0 h 0.2286 m 0.1143,0 h 0.2286 m 0.1143,0 h 0.2286 m 0.1143,0 h 0.2286 m 0.1143,0 h 0.2286 m 0.1143,0 h 0.2286 m 0.1143,0 h 0.2286 m 0.1143,0 h 0.2286 m 0.1143,0 h 0.2286 m 0.1143,0 h 0.2286 m 0.1143,0 h 0.2286 m 0.1143,0 h 0.2286 m 0.1143,0 h 0.2286 m 0.1143,0 h 0.2286 m 0.1143,0 h 0.2286 m 0.1143,0 h 0.2286 m 0.1143,0 h 0.2286 m 0.1143,0 h 0.1705"
       style="fill:none;stroke:#000000;stroke-width:0.018;stroke-linecap:round;stroke-linejoin:round;stroke-miterlimit:10;stroke-dasharray:none;stroke-opacity:1"
       transform="matrix(37.799327,0,0,-37.779048,26.060608,793.36)" />
    <path
       id="path7002"
       d="m 91.987694,14.88 h 0.1705 m 0.1143,0 h 0.2286 m 0.1143,0 h 0.2286 m 0.1143,0 h 0.2286 m 0.1143,0 h 0.2286 m 0.1143,0 h 0.2286 m 0.1143,0 h 0.2286 m 0.1143,0 h 0.2286 m 0.1143,0 h 0.2286 m 0.1143,0 h 0.2286 m 0.1143,0 h 0.2286 m 0.1143,0 h 0.2286 m 0.1143,0 h 0.2286 m 0.1143,0 h 0.2286 m 0.1143,0 h 0.2286 m 0.1143,0 h 0.2286 m 0.1143,0 h 0.2286 m 0.1143,0 h 0.2286 m 0.1143,0 h 0.2286 m 0.1143,0 h 0.2286 m 0.1143,0 h 0.2286 m 0.1143,0 h 0.2286 m 0.1143,0 h 0.2286 m 0.1143,0 h 0.228596 m 0.1143,0 h 0.2286 m 0.1143,0 h 0.2286 m 0.1143,0 h 0.2286 m 0.1143,0 h 0.2286 m 0.1143,0 h 0.2286 m 0.1143,0 h 0.2286 m 0.1143,0 h 0.2286 m 0.1143,0 h 0.2286 m 0.1143,0 h 0.2286 m 0.1143,0 h 0.2286 m 0.1143,0 h 0.2286 m 0.1143,0 h 0.2286 m 0.1143,0 h 0.2286 m 0.1143,0 h 0.2286 m 0.1143,0 h 0.2286 m 0.1143,0 h 0.2286 m 0.1143,0 h 0.2286 m 0.1143,0 h 0.2286 m 0.1143,0 h 0.2286 m 0.1143,0 h 0.2286 m 0.1143,0 h 0.1705"
       style="fill:none;stroke:#000000;stroke-width:0.018;stroke-linecap:round;stroke-linejoin:round;stroke-miterlimit:10;stroke-dasharray:none;stroke-opacity:1"
       transform="matrix(37.799327,0,0,-37.779048,26.060608,793.36)" />
    <path
       id="path7003"
       d="m 91.987694,13.6 h 0.1705 m 0.1143,0 h 0.2286 m 0.1143,0 h 0.2286 m 0.1143,0 h 0.2286 m 0.1143,0 h 0.2286 m 0.1143,0 h 0.2286 m 0.1143,0 h 0.2286 m 0.1143,0 h 0.2286 m 0.1143,0 h 0.2286 m 0.1143,0 h 0.2286 m 0.1143,0 h 0.2286 m 0.1143,0 h 0.2286 m 0.1143,0 h 0.2286 m 0.1143,0 h 0.2286 m 0.1143,0 h 0.2286 m 0.1143,0 h 0.2286 m 0.1143,0 h 0.2286 m 0.1143,0 h 0.2286 m 0.1143,0 h 0.2286 m 0.1143,0 h 0.2286 m 0.1143,0 h 0.2286 m 0.1143,0 h 0.2286 m 0.1143,0 h 0.2286 m 0.1143,0 h 0.228596 m 0.1143,0 h 0.2286 m 0.1143,0 h 0.2286 m 0.1143,0 h 0.2286 m 0.1143,0 h 0.2286 m 0.1143,0 h 0.2286 m 0.1143,0 h 0.2286 m 0.1143,0 h 0.2286 m 0.1143,0 h 0.2286 m 0.1143,0 h 0.2286 m 0.1143,0 h 0.2286 m 0.1143,0 h 0.2286 m 0.1143,0 h 0.2286 m 0.1143,0 h 0.2286 m 0.1143,0 h 0.2286 m 0.1143,0 h 0.2286 m 0.1143,0 h 0.2286 m 0.1143,0 h 0.2286 m 0.1143,0 h 0.2286 m 0.1143,0 h 0.2286 m 0.1143,0 h 0.2286 m 0.1143,0 h 0.1705"
       style="fill:none;stroke:#000000;stroke-width:0.018;stroke-linecap:round;stroke-linejoin:round;stroke-miterlimit:10;stroke-dasharray:none;stroke-opacity:1"
       transform="matrix(37.799327,0,0,-37.779048,26.060608,793.36)" />
    <path
       id="path7004"
       d="M 91.987694,18.72 H 107.18769"
       style="fill:none;stroke:#000000;stroke-width:0.025;stroke-linecap:round;stroke-linejoin:round;stroke-miterlimit:10;stroke-dasharray:none;stroke-opacity:1"
       transform="matrix(37.799327,0,0,-37.779048,26.060608,793.36)" />
    <path
       id="path7005"
       d="m 94.865342,8.0004587 v 0.3"
       style="fill:none;stroke:#000000;stroke-width:0.025;stroke-linecap:round;stroke-linejoin:round;stroke-miterlimit:10;stroke-dasharray:none;stroke-opacity:1"
       transform="matrix(37.799327,0,0,-37.779048,26.060608,793.36)" />
    <path
       id="path7006"
       d="m 95.991175,7.3504587 v 0.3"
       style="fill:none;stroke:#000000;stroke-width:0.025;stroke-linecap:round;stroke-linejoin:round;stroke-miterlimit:10;stroke-dasharray:none;stroke-opacity:1"
       transform="matrix(37.799327,0,0,-37.779048,26.060608,793.36)" />
    <path
       id="path7007"
       d="m 97.117008,6.7004587 v 0.3"
       style="fill:none;stroke:#000000;stroke-width:0.025;stroke-linecap:round;stroke-linejoin:round;stroke-miterlimit:10;stroke-dasharray:none;stroke-opacity:1"
       transform="matrix(37.799327,0,0,-37.779048,26.060608,793.36)" />
    <path
       id="path7008"
       d="m 94.865342,8.3004587 0.259808,-0.15"
       style="fill:none;stroke:#000000;stroke-width:0.025;stroke-linecap:round;stroke-linejoin:round;stroke-miterlimit:10;stroke-dasharray:none;stroke-opacity:1"
       transform="matrix(37.799327,0,0,-37.779048,26.060608,793.36)" />
    <path
       id="path7009"
       d="m 96.857201,9.4504587 0.259807,-0.15"
       style="fill:none;stroke:#000000;stroke-width:0.025;stroke-linecap:round;stroke-linejoin:round;stroke-miterlimit:10;stroke-dasharray:none;stroke-opacity:1"
       transform="matrix(37.799327,0,0,-37.779048,26.060608,793.36)" />
    <path
       id="path7010"
       d="m 95.991175,7.6504587 0.259808,-0.15"
       style="fill:none;stroke:#000000;stroke-width:0.025;stroke-linecap:round;stroke-linejoin:round;stroke-miterlimit:10;stroke-dasharray:none;stroke-opacity:1"
       transform="matrix(37.799327,0,0,-37.779048,26.060608,793.36)" />
    <path
       id="path7011"
       d="m 98.156239,8.9004587 0.259808,-0.15"
       style="fill:none;stroke:#000000;stroke-width:0.025;stroke-linecap:round;stroke-linejoin:round;stroke-miterlimit:10;stroke-dasharray:none;stroke-opacity:1"
       transform="matrix(37.799327,0,0,-37.779048,26.060608,793.36)" />
    <path
       id="path7012"
       d="m 97.117008,7.0004587 0.259808,-0.15"
       style="fill:none;stroke:#000000;stroke-width:0.025;stroke-linecap:round;stroke-linejoin:round;stroke-miterlimit:10;stroke-dasharray:none;stroke-opacity:1"
       transform="matrix(37.799327,0,0,-37.779048,26.060608,793.36)" />
    <path
       id="path7013"
       d="m 117.46861,18.750459 0.2598,-0.15"
       style="fill:none;stroke:#000000;stroke-width:0.025;stroke-linecap:round;stroke-linejoin:round;stroke-miterlimit:10;stroke-dasharray:none;stroke-opacity:1"
       transform="matrix(37.799327,0,0,-37.779048,26.060608,793.36)" />
    <path
       id="path7014"
       d="m 94.865342,8.0004587 0.259808,-0.15"
       style="fill:none;stroke:#000000;stroke-width:0.025;stroke-linecap:round;stroke-linejoin:round;stroke-miterlimit:10;stroke-dasharray:none;stroke-opacity:1"
       transform="matrix(37.799327,0,0,-37.779048,26.060608,793.36)" />
    <path
       id="path7015"
       d="m 95.991175,7.3504587 0.259808,-0.15"
       style="fill:none;stroke:#000000;stroke-width:0.025;stroke-linecap:round;stroke-linejoin:round;stroke-miterlimit:10;stroke-dasharray:none;stroke-opacity:1"
       transform="matrix(37.799327,0,0,-37.779048,26.060608,793.36)" />
    <path
       id="path7016"
       d="m 97.117008,6.7004587 0.259808,-0.15"
       style="fill:none;stroke:#000000;stroke-width:0.025;stroke-linecap:round;stroke-linejoin:round;stroke-miterlimit:10;stroke-dasharray:none;stroke-opacity:1"
       transform="matrix(37.799327,0,0,-37.779048,26.060608,793.36)" />
    <path
       id="path7017"
       d="m 95.12515,8.1504587 v -0.3"
       style="fill:none;stroke:#000000;stroke-width:0.025;stroke-linecap:round;stroke-linejoin:round;stroke-miterlimit:10;stroke-dasharray:none;stroke-opacity:1"
       transform="matrix(37.799327,0,0,-37.779048,26.060608,793.36)" />
    <path
       id="path7018"
       d="m 97.117008,9.3004587 v -0.3"
       style="fill:none;stroke:#000000;stroke-width:0.025;stroke-linecap:round;stroke-linejoin:round;stroke-miterlimit:10;stroke-dasharray:none;stroke-opacity:1"
       transform="matrix(37.799327,0,0,-37.779048,26.060608,793.36)" />
    <path
       id="path7019"
       d="m 96.250983,7.5004587 v -0.3"
       style="fill:none;stroke:#000000;stroke-width:0.025;stroke-linecap:round;stroke-linejoin:round;stroke-miterlimit:10;stroke-dasharray:none;stroke-opacity:1"
       transform="matrix(37.799327,0,0,-37.779048,26.060608,793.36)" />
    <path
       id="path7020"
       d="m 98.416047,8.7504587 v -0.3"
       style="fill:none;stroke:#000000;stroke-width:0.025;stroke-linecap:round;stroke-linejoin:round;stroke-miterlimit:10;stroke-dasharray:none;stroke-opacity:1"
       transform="matrix(37.799327,0,0,-37.779048,26.060608,793.36)" />
    <path
       id="path7021"
       d="m 97.376816,6.8504587 v -0.3"
       style="fill:none;stroke:#000000;stroke-width:0.025;stroke-linecap:round;stroke-linejoin:round;stroke-miterlimit:10;stroke-dasharray:none;stroke-opacity:1"
       transform="matrix(37.799327,0,0,-37.779048,26.060608,793.36)" />
    <path
       id="path7022"
       d="m 117.72841,18.600459 v -0.3"
       style="fill:none;stroke:#000000;stroke-width:0.025;stroke-linecap:round;stroke-linejoin:round;stroke-miterlimit:10;stroke-dasharray:none;stroke-opacity:1"
       transform="matrix(37.799327,0,0,-37.779048,26.060608,793.36)" />
    <path
       id="path7023"
       d="m 94.865342,8.3004587 1.991859,1.15"
       style="fill:none;stroke:#000000;stroke-width:0.025;stroke-linecap:round;stroke-linejoin:round;stroke-miterlimit:10;stroke-dasharray:none;stroke-opacity:1"
       transform="matrix(37.799327,0,0,-37.779048,26.060608,793.36)" />
    <path
       id="path7024"
       d="m 95.12515,8.1504587 1.991858,1.15"
       style="fill:none;stroke:#000000;stroke-width:0.025;stroke-linecap:round;stroke-linejoin:round;stroke-miterlimit:10;stroke-dasharray:none;stroke-opacity:1"
       transform="matrix(37.799327,0,0,-37.779048,26.060608,793.36)" />
    <path
       id="path7025"
       d="m 95.12515,7.8504587 1.991858,1.15"
       style="fill:none;stroke:#000000;stroke-width:0.025;stroke-linecap:round;stroke-linejoin:round;stroke-miterlimit:10;stroke-dasharray:none;stroke-opacity:1"
       transform="matrix(37.799327,0,0,-37.779048,26.060608,793.36)" />
    <path
       id="path7026"
       d="m 95.991175,7.6504587 2.165064,1.25"
       style="fill:none;stroke:#000000;stroke-width:0.025;stroke-linecap:round;stroke-linejoin:round;stroke-miterlimit:10;stroke-dasharray:none;stroke-opacity:1"
       transform="matrix(37.799327,0,0,-37.779048,26.060608,793.36)" />
    <path
       id="path7027"
       d="m 96.250983,7.5004587 2.165064,1.25"
       style="fill:none;stroke:#000000;stroke-width:0.025;stroke-linecap:round;stroke-linejoin:round;stroke-miterlimit:10;stroke-dasharray:none;stroke-opacity:1"
       transform="matrix(37.799327,0,0,-37.779048,26.060608,793.36)" />
    <path
       id="path7028"
       d="m 96.250983,7.2004587 2.165064,1.25"
       style="fill:none;stroke:#000000;stroke-width:0.025;stroke-linecap:round;stroke-linejoin:round;stroke-miterlimit:10;stroke-dasharray:none;stroke-opacity:1"
       transform="matrix(37.799327,0,0,-37.779048,26.060608,793.36)" />
    <path
       id="path7029"
       d="M 97.117008,7.0004587 117.46861,18.750459"
       style="fill:none;stroke:#000000;stroke-width:0.025;stroke-linecap:round;stroke-linejoin:round;stroke-miterlimit:10;stroke-dasharray:none;stroke-opacity:1"
       transform="matrix(37.799327,0,0,-37.779048,26.060608,793.36)" />
    <path
       id="path7030"
       d="M 97.376816,6.8504587 117.72841,18.600459"
       style="fill:none;stroke:#000000;stroke-width:0.025;stroke-linecap:round;stroke-linejoin:round;stroke-miterlimit:10;stroke-dasharray:none;stroke-opacity:1"
       transform="matrix(37.799327,0,0,-37.779048,26.060608,793.36)" />
    <path
       id="path7031"
       d="M 97.376816,6.5504587 117.72841,18.300459"
       style="fill:none;stroke:#000000;stroke-width:0.025;stroke-linecap:round;stroke-linejoin:round;stroke-miterlimit:10;stroke-dasharray:none;stroke-opacity:1"
       transform="matrix(37.799327,0,0,-37.779048,26.060608,793.36)" />
    <path
       id="path7032"
       d="m 98.242841,6.2304587 v -0.18"
       style="fill:none;stroke:#000000;stroke-width:0.025;stroke-linecap:round;stroke-linejoin:round;stroke-miterlimit:10;stroke-dasharray:none;stroke-opacity:1"
       transform="matrix(37.799327,0,0,-37.779048,26.060608,793.36)" />
    <path
       id="path7033"
       d="m 101.70694,4.2304587 v -0.18"
       style="fill:none;stroke:#000000;stroke-width:0.025;stroke-linecap:round;stroke-linejoin:round;stroke-miterlimit:10;stroke-dasharray:none;stroke-opacity:1"
       transform="matrix(37.799327,0,0,-37.779048,26.060608,793.36)" />
    <path
       id="path7034"
       d="m 98.242841,6.0504587 2.598079,-1.5"
       style="fill:none;stroke:#000000;stroke-width:0.025;stroke-linecap:round;stroke-linejoin:round;stroke-miterlimit:10;stroke-dasharray:none;stroke-opacity:1"
       transform="matrix(37.799327,0,0,-37.779048,26.060608,793.36)" />
    <path
       id="path7035"
       d="m 101.70694,4.0504587 2.59808,-1.5"
       style="fill:none;stroke:#000000;stroke-width:0.025;stroke-linecap:round;stroke-linejoin:round;stroke-miterlimit:10;stroke-dasharray:none;stroke-opacity:1"
       transform="matrix(37.799327,0,0,-37.779048,26.060608,793.36)" />
    <path
       id="path7036"
       d="m 98.242841,6.2304587 2.598079,-1.5"
       style="fill:none;stroke:#000000;stroke-width:0.025;stroke-linecap:round;stroke-linejoin:round;stroke-miterlimit:10;stroke-dasharray:none;stroke-opacity:1"
       transform="matrix(37.799327,0,0,-37.779048,26.060608,793.36)" />
    <path
       id="path7037"
       d="m 101.70694,4.2304587 2.59808,-1.5"
       style="fill:none;stroke:#000000;stroke-width:0.025;stroke-linecap:round;stroke-linejoin:round;stroke-miterlimit:10;stroke-dasharray:none;stroke-opacity:1"
       transform="matrix(37.799327,0,0,-37.779048,26.060608,793.36)" />
    <path
       id="path7038"
       d="m 98.242841,6.2304587 5.196149,3"
       style="fill:none;stroke:#000000;stroke-width:0.025;stroke-linecap:round;stroke-linejoin:round;stroke-miterlimit:10;stroke-dasharray:none;stroke-opacity:1"
       transform="matrix(37.799327,0,0,-37.779048,26.060608,793.36)" />
    <path
       id="path7039"
       d="m 100.84092,4.7304587 5.19615,3"
       style="fill:none;stroke:#000000;stroke-width:0.025;stroke-linecap:round;stroke-linejoin:round;stroke-miterlimit:10;stroke-dasharray:none;stroke-opacity:1"
       transform="matrix(37.799327,0,0,-37.779048,26.060608,793.36)" />
    <path
       id="path7040"
       d="m 100.84092,4.5504587 5.19615,3"
       style="fill:none;stroke:#000000;stroke-width:0.025;stroke-linecap:round;stroke-linejoin:round;stroke-miterlimit:10;stroke-dasharray:none;stroke-opacity:1"
       transform="matrix(37.799327,0,0,-37.779048,26.060608,793.36)" />
    <path
       id="path7041"
       d="m 103.43899,9.2304587 2.59808,-1.5"
       style="fill:none;stroke:#000000;stroke-width:0.025;stroke-linecap:round;stroke-linejoin:round;stroke-miterlimit:10;stroke-dasharray:none;stroke-opacity:1"
       transform="matrix(37.799327,0,0,-37.779048,26.060608,793.36)" />
    <path
       id="path7042"
       d="m 106.03707,7.7304587 v -0.18"
       style="fill:none;stroke:#000000;stroke-width:0.025;stroke-linecap:round;stroke-linejoin:round;stroke-miterlimit:10;stroke-dasharray:none;stroke-opacity:1"
       transform="matrix(37.799327,0,0,-37.779048,26.060608,793.36)" />
    <path
       id="path7043"
       d="m 100.84092,4.7304587 v -0.18"
       style="fill:none;stroke:#000000;stroke-width:0.025;stroke-linecap:round;stroke-linejoin:round;stroke-miterlimit:10;stroke-dasharray:none;stroke-opacity:1"
       transform="matrix(37.799327,0,0,-37.779048,26.060608,793.36)" />
    <path
       id="path7044"
       d="m 104.30502,2.7304587 v -0.18"
       style="fill:none;stroke:#000000;stroke-width:0.025;stroke-linecap:round;stroke-linejoin:round;stroke-miterlimit:10;stroke-dasharray:none;stroke-opacity:1"
       transform="matrix(37.799327,0,0,-37.779048,26.060608,793.36)" />
    <path
       id="path7045"
       d="m 101.70694,4.2304587 7.70763,4.45"
       style="fill:none;stroke:#000000;stroke-width:0.025;stroke-linecap:round;stroke-linejoin:round;stroke-miterlimit:10;stroke-dasharray:none;stroke-opacity:1"
       transform="matrix(37.799327,0,0,-37.779048,26.060608,793.36)" />
    <path
       id="path7046"
       d="m 104.30502,2.7304587 7.70763,4.45"
       style="fill:none;stroke:#000000;stroke-width:0.025;stroke-linecap:round;stroke-linejoin:round;stroke-miterlimit:10;stroke-dasharray:none;stroke-opacity:1"
       transform="matrix(37.799327,0,0,-37.779048,26.060608,793.36)" />
    <path
       id="path7047"
       d="m 104.30502,2.5504587 7.70763,4.45"
       style="fill:none;stroke:#000000;stroke-width:0.025;stroke-linecap:round;stroke-linejoin:round;stroke-miterlimit:10;stroke-dasharray:none;stroke-opacity:1"
       transform="matrix(37.799327,0,0,-37.779048,26.060608,793.36)" />
    <path
       id="path7048"
       d="m 109.41457,8.6804587 2.59808,-1.5"
       style="fill:none;stroke:#000000;stroke-width:0.025;stroke-linecap:round;stroke-linejoin:round;stroke-miterlimit:10;stroke-dasharray:none;stroke-opacity:1"
       transform="matrix(37.799327,0,0,-37.779048,26.060608,793.36)" />
    <path
       id="path7049"
       d="m 112.01265,7.1804587 v -0.18"
       style="fill:none;stroke:#000000;stroke-width:0.025;stroke-linecap:round;stroke-linejoin:round;stroke-miterlimit:10;stroke-dasharray:none;stroke-opacity:1"
       transform="matrix(37.799327,0,0,-37.779048,26.060608,793.36)" />
    <text
       id="text7049"
       xml:space="preserve"
       transform="matrix(0.16287877,0,0,0.16279138,3571.194,520.38905)"><tspan
         id="tspan7049"
         style="font-variant:normal;font-weight:700;font-size:133px;font-family:'IBM Plex Mono';writing-mode:lr-tb;fill:#000000;fill-opacity:1;fill-rule:nonzero;stroke:none"
         x="0"
         y="0">A</tspan></text>
    <text
       id="text7050"
       xml:space="preserve"
       transform="matrix(0.16287877,0,0,0.16279138,3614.5921,544.94543)"><tspan
         id="tspan7050"
         style="font-variant:normal;font-weight:700;font-size:133px;font-family:'IBM Plex Mono';writing-mode:lr-tb;fill:#000000;fill-opacity:1;fill-rule:nonzero;stroke:none"
         x="0"
         y="0">B</tspan></text>
    <text
       id="text7051"
       xml:space="preserve"
       transform="matrix(0.16287877,0,0,0.16279138,3656.9977,569.50181)"><tspan
         id="tspan7051"
         style="font-variant:normal;font-weight:700;font-size:133px;font-family:'IBM Plex Mono';writing-mode:lr-tb;fill:#000000;fill-opacity:1;fill-rule:nonzero;stroke:none"
         x="0"
         y="0">C</tspan></text>
    <text
       id="text7052"
       xml:space="preserve"
       transform="matrix(0.16287877,0,0,0.16279138,3743.6797,619.55905)"><tspan
         id="tspan7052"
         style="font-variant:normal;font-weight:700;font-size:133px;font-family:'IBM Plex Mono';writing-mode:lr-tb;fill:#000000;fill-opacity:1;fill-rule:nonzero;stroke:none"
         x="0"
         y="0">D</tspan></text>
    <text
       id="text7053"
       xml:space="preserve"
       transform="matrix(0.16287877,0,0,0.16279138,3875.4883,695.11715)"><tspan
         id="tspan7053"
         style="font-variant:normal;font-weight:700;font-size:133px;font-family:'IBM Plex Mono';writing-mode:lr-tb;fill:#000000;fill-opacity:1;fill-rule:nonzero;stroke:none"
         x="0"
         y="0">E</tspan></text>
    <path
       id="path7053"
       d="M 91.987694,2 H 117.98769"
       style="fill:none;stroke:#000000;stroke-width:0.013;stroke-linecap:round;stroke-linejoin:round;stroke-miterlimit:10;stroke-dasharray:none;stroke-opacity:1"
       transform="matrix(37.799327,0,0,-37.779048,26.060608,793.36)" />
    <text
       id="text7054"
       xml:space="preserve"
       transform="matrix(0.08143938,0,0,0.08139569,3558.8578,740.84324)"><tspan
         id="tspan7054"
         style="font-variant:normal;font-weight:normal;font-size:133px;font-family:'IBM Plex Mono';writing-mode:lr-tb;fill:#000000;fill-opacity:1;fill-rule:nonzero;stroke:none"
         x="0"
         y="0">Feuille	de	débit</tspan></text>
    <path
       id="path7054"
       d="M 91.987694,2 V 1"
       style="fill:none;stroke:#000000;stroke-width:0.013;stroke-linecap:round;stroke-linejoin:round;stroke-miterlimit:10;stroke-dasharray:none;stroke-opacity:1"
       transform="matrix(37.799327,0,0,-37.779048,26.060608,793.36)" />
    <path
       id="path7055"
       d="m 91.987694,1 h 1"
       style="fill:none;stroke:#000000;stroke-width:0.013;stroke-linecap:round;stroke-linejoin:round;stroke-miterlimit:10;stroke-dasharray:none;stroke-opacity:1"
       transform="matrix(37.799327,0,0,-37.779048,26.060608,793.36)" />
    <path
       id="path7056"
       d="M 92.987694,1 V 2"
       style="fill:none;stroke:#000000;stroke-width:0.013;stroke-linecap:round;stroke-linejoin:round;stroke-miterlimit:10;stroke-dasharray:none;stroke-opacity:1"
       transform="matrix(37.799327,0,0,-37.779048,26.060608,793.36)" />
    <text
       id="text7056"
       xml:space="preserve"
       transform="matrix(0.16287877,0,0,0.16279138,3509.5882,744.24724)"><tspan
         id="tspan7056"
         style="font-variant:normal;font-weight:normal;font-size:133px;font-family:'IBM Plex Mono';writing-mode:lr-tb;fill:#000000;fill-opacity:1;fill-rule:nonzero;stroke:none"
         x="0"
         y="0">A3</tspan></text>
    <path
       id="path7057"
       d="m 117.46269,1.8 0.12858,-0.2571429"
       style="fill:none;stroke:#000000;stroke-width:0.018;stroke-linecap:round;stroke-linejoin:round;stroke-miterlimit:10;stroke-dasharray:none;stroke-opacity:1"
       transform="matrix(37.799327,0,0,-37.779048,26.060608,793.36)" />
    <path
       id="path7058"
       d="M 117.63412,1.4571428 117.76269,1.2"
       style="fill:none;stroke:#000000;stroke-width:0.018;stroke-linecap:round;stroke-linejoin:round;stroke-miterlimit:10;stroke-dasharray:none;stroke-opacity:1"
       transform="matrix(37.799327,0,0,-37.779048,26.060608,793.36)" />
    <path
       id="path7059"
       d="m 117.76269,1.8 -0.225,-0.6 h -0.075 l 0.225,0.6 z"
       style="fill:none;stroke:#000000;stroke-width:0.018;stroke-linecap:round;stroke-linejoin:round;stroke-miterlimit:10;stroke-dasharray:none;stroke-opacity:1"
       transform="matrix(37.799327,0,0,-37.779048,26.060608,793.36)" />
    <path
       id="path7060"
       d="M 117.76269,1.8 V 1.2"
       style="fill:none;stroke:#000000;stroke-width:0.018;stroke-linecap:round;stroke-linejoin:round;stroke-miterlimit:10;stroke-dasharray:none;stroke-opacity:1"
       transform="matrix(37.799327,0,0,-37.779048,26.060608,793.36)" />
    <path
       id="path7061"
       d="M 117.83769,1.8 V 1.2"
       style="fill:none;stroke:#000000;stroke-width:0.018;stroke-linecap:round;stroke-linejoin:round;stroke-miterlimit:10;stroke-dasharray:none;stroke-opacity:1"
       transform="matrix(37.799327,0,0,-37.779048,26.060608,793.36)" />
    <path
       id="path7062"
       d="m 117.83769,1.8 0.004,-5.97e-5 0.004,-1.791e-4 0.004,-2.984e-4 0.004,-4.174e-4 0.004,-5.36e-4 0.004,-6.543e-4 0.004,-7.721e-4 0.004,-8.891e-4 0.004,-0.00101 0.004,-0.00112 0.004,-0.00124 0.004,-0.00135 0.004,-0.00146 0.004,-0.00157 0.004,-0.00168 0.004,-0.00179 0.004,-0.0019 0.004,-0.00201 0.004,-0.00211 0.004,-0.00221 0.004,-0.00231 0.003,-0.00241 0.003,-0.00251 0.003,-0.00261 0.003,-0.0027 0.003,-0.00279 0.003,-0.00288 0.003,-0.00296 0.003,-0.00305 0.003,-0.00313 0.003,-0.00321 0.003,-0.00329 0.003,-0.00336 0.002,-0.00343 0.002,-0.0035 0.002,-0.00357 0.002,-0.00363 0.002,-0.00369 0.002,-0.00375 0.002,-0.0038 0.002,-0.00385 0.002,-0.0039 0.002,-0.00394 0.001,-0.00399 0.001,-0.00402 10e-4,-0.00406 0.001,-0.00409 9.7e-4,-0.00412 8.5e-4,-0.00415 7.3e-4,-0.00417 6.2e-4,-0.00419 4.9e-4,-0.0042 3.8e-4,-0.00422 2.6e-4,-0.00422 1.4e-4,-0.00423 2e-5,-0.00423 -10e-5,-0.00423 -2.2e-4,-0.00423 -3.4e-4,-0.00422 -4.6e-4,-0.00421 -5.7e-4,-0.00419 -7e-4,-0.00418 -8.1e-4,-0.00415 -9.3e-4,-0.00413 -0.001,-0.0041 -0.001,-0.00407 -10e-4,-0.00404 -0.001,-0.004 -0.002,-0.00396 -0.002,-0.00391 -0.002,-0.00387 -0.002,-0.00382 -0.002,-0.00376 -0.002,-0.00371 -0.002,-0.00365 -0.002,-0.00359 -0.002,-0.00352 -0.002,-0.00345 -0.003,-0.00338 -0.003,-0.00331 -0.003,-0.00324 -0.003,-0.00316 -0.003,-0.00308 -0.003,-0.00299 -0.003,-0.00291 -0.003,-0.00282 -0.003,-0.00273 -0.003,-0.00264 -0.003,-0.00254 -0.003,-0.00245 -0.004,-0.00235 -0.004,-0.00225 -0.004,-0.00214 -0.004,-0.00204 -0.004,-0.00194 -0.004,-0.00183 -0.004,-0.00172 -0.004,-0.00161 -0.004,-0.0015 -0.004,-0.00139 -0.004,-0.00127 -0.004,-0.00116 -0.004,-0.00104 -0.004,-9.275e-4 -0.004,-8.105e-4 -0.004,-6.93e-4 -0.004,-5.75e-4 -0.004,-4.563e-4 -0.004,-3.375e-4 -0.004,-2.183e-4 -0.004,-9.89e-5 -0.001,-6.4e-6"
       style="fill:none;stroke:#000000;stroke-width:0.018;stroke-linecap:round;stroke-linejoin:round;stroke-miterlimit:10;stroke-dasharray:none;stroke-opacity:1"
       transform="matrix(37.799327,0,0,-37.779048,26.060608,793.36)" />
    <path
       id="path7063"
       d="M 117.83769,1.35 V 1.5 m -3e-5,0 h 6e-5"
       style="fill:none;stroke:#000000;stroke-width:0.018;stroke-linecap:round;stroke-linejoin:round;stroke-miterlimit:10;stroke-dasharray:none;stroke-opacity:1"
       transform="matrix(37.799327,0,0,-37.779048,26.060608,793.36)" />
    <path
       id="path7064"
       d="m 117.83769,1.5 0.004,-5.97e-5 0.004,-1.791e-4 0.004,-2.984e-4 0.004,-4.174e-4 0.004,-5.36e-4 0.004,-6.544e-4 0.004,-7.72e-4 0.004,-8.892e-4 0.004,-0.00101 0.004,-0.00112 0.004,-0.00124 0.004,-0.00135 0.004,-0.00146 0.004,-0.00157 0.004,-0.00168 0.004,-0.00179 0.004,-0.0019 0.004,-0.00201 0.004,-0.00211 0.004,-0.00221 0.004,-0.00231 0.003,-0.00241 0.003,-0.00251 0.003,-0.00261 0.003,-0.0027 0.003,-0.00279 0.003,-0.00288 0.003,-0.00296 0.003,-0.00305 0.003,-0.00313 0.003,-0.00321 0.003,-0.00329 0.003,-0.00336 0.002,-0.00343 0.002,-0.0035 0.002,-0.00357 0.002,-0.00363 0.002,-0.00369 0.002,-0.00375 0.002,-0.0038 0.002,-0.00385 0.002,-0.0039 0.002,-0.00394 0.001,-0.00399 0.001,-0.00402 10e-4,-0.00406 0.001,-0.00409 9.7e-4,-0.00412 8.5e-4,-0.00415 7.3e-4,-0.00417 6.2e-4,-0.00419 4.9e-4,-0.0042 3.8e-4,-0.00422 2.6e-4,-0.00422 1.4e-4,-0.00423 2e-5,-0.00423 -10e-5,-0.00423 -2.2e-4,-0.00423 -3.4e-4,-0.00422 -4.6e-4,-0.00421 -5.7e-4,-0.00419 -7e-4,-0.00418 -8.1e-4,-0.00415 -9.3e-4,-0.00413 -0.001,-0.0041 -0.001,-0.00407 -10e-4,-0.00404 -0.001,-0.004 -0.002,-0.00396 -0.002,-0.00391 -0.002,-0.00387 -0.002,-0.00382 -0.002,-0.00376 -0.002,-0.00371 -0.002,-0.00365 -0.002,-0.00359 -0.002,-0.00352 -0.002,-0.00345 -0.003,-0.00338 -0.003,-0.00331 -0.003,-0.00323 -0.003,-0.00316 -0.003,-0.00308 -0.003,-0.00299 -0.003,-0.00291 -0.003,-0.00282 -0.003,-0.00273 -0.003,-0.00264 -0.003,-0.00254 -0.003,-0.00245 -0.004,-0.00235 -0.004,-0.00225 -0.004,-0.00214 -0.004,-0.00204 -0.004,-0.00194 -0.004,-0.00183 -0.004,-0.00172 -0.004,-0.00161 -0.004,-0.0015 -0.004,-0.00139 -0.004,-0.00127 -0.004,-0.00116 -0.004,-0.00104 -0.004,-9.275e-4 -0.004,-8.105e-4 -0.004,-6.93e-4 -0.004,-5.75e-4 -0.004,-4.563e-4 -0.004,-3.375e-4 -0.004,-2.183e-4 -0.004,-9.89e-5 -0.001,-6.4e-6"
       style="fill:none;stroke:#000000;stroke-width:0.018;stroke-linecap:round;stroke-linejoin:round;stroke-miterlimit:10;stroke-dasharray:none;stroke-opacity:1"
       transform="matrix(37.799327,0,0,-37.779048,26.060608,793.36)" />
    <path
       id="path7065"
       d="m 117.76269,1.8 h 0.075"
       style="fill:none;stroke:#000000;stroke-width:0.018;stroke-linecap:round;stroke-linejoin:round;stroke-miterlimit:10;stroke-dasharray:none;stroke-opacity:1"
       transform="matrix(37.799327,0,0,-37.779048,26.060608,793.36)" />
    <path
       id="path7066"
       d="m 117.76269,1.2 h 0.075"
       style="fill:none;stroke:#000000;stroke-width:0.018;stroke-linecap:round;stroke-linejoin:round;stroke-miterlimit:10;stroke-dasharray:none;stroke-opacity:1"
       transform="matrix(37.799327,0,0,-37.779048,26.060608,793.36)" />
  </g>
</svg>
