<?xml version="1.0" encoding="UTF-8" standalone="no"?>
<!-- Created with Inkscape (http://www.inkscape.org/) -->

<svg
   version="1.1"
   id="svg1"
   width="1122.6667"
   height="793.33331"
   viewBox="0 0 1122.6667 793.33331"
   sodipodi:docname="yopoyta6.pdf"
   xmlns:inkscape="http://www.inkscape.org/namespaces/inkscape"
   xmlns:sodipodi="http://sodipodi.sourceforge.net/DTD/sodipodi-0.dtd"
   xmlns="http://www.w3.org/2000/svg"
   xmlns:svg="http://www.w3.org/2000/svg">
  <defs
     id="defs1" />
  <sodipodi:namedview
     id="namedview1"
     pagecolor="#ffffff"
     bordercolor="#000000"
     borderopacity="0.25"
     inkscape:showpageshadow="2"
     inkscape:pageopacity="0.0"
     inkscape:pagecheckerboard="0"
     inkscape:deskcolor="#d1d1d1"
     inkscape:zoom="0.33759726"
     inkscape:cx="1122.6394"
     inkscape:cy="380.63105"
     inkscape:window-width="1920"
     inkscape:window-height="1011"
     inkscape:window-x="0"
     inkscape:window-y="0"
     inkscape:window-maximized="1"
     inkscape:current-layer="g254"
     inkscape:export-bgcolor="#ffffffff">
    <inkscape:page
       x="0"
       y="0"
       inkscape:label="2"
       id="page254"
       width="1122.6667"
       height="793.33331"
       inkscape:export-filename="yopoyta6.svg"
       inkscape:export-xdpi="96"
       inkscape:export-ydpi="96"
       margin="0"
       bleed="0" />
  </sodipodi:namedview>
  <g
     id="g254"
     inkscape:groupmode="layer"
     inkscape:label="2"
     transform="translate(-1142.6668)">
    <path
       id="path255"
       d="M 262,205 V 5"
       style="fill:none;stroke:#000000;stroke-width:0.13;stroke-linecap:round;stroke-linejoin:round;stroke-miterlimit:10;stroke-dasharray:none;stroke-opacity:1"
       transform="matrix(3.7799327,0,0,-3.7779048,1142.6667,793.36)" />
    <path
       id="path256"
       d="M 292,205 V 5"
       style="fill:none;stroke:#000000;stroke-width:0.13;stroke-linecap:round;stroke-linejoin:round;stroke-miterlimit:10;stroke-dasharray:none;stroke-opacity:1"
       transform="matrix(3.7799327,0,0,-3.7779048,1142.6667,793.36)" />
    <path
       id="path257"
       d="m 262,5 h 30"
       style="fill:none;stroke:#000000;stroke-width:0.13;stroke-linecap:round;stroke-linejoin:round;stroke-miterlimit:10;stroke-dasharray:none;stroke-opacity:1"
       transform="matrix(3.7799327,0,0,-3.7779048,1142.6667,793.36)" />
    <path
       id="path258"
       d="m 262,205 h 30"
       style="fill:none;stroke:#000000;stroke-width:0.13;stroke-linecap:round;stroke-linejoin:round;stroke-miterlimit:10;stroke-dasharray:none;stroke-opacity:1"
       transform="matrix(3.7799327,0,0,-3.7779048,1142.6667,793.36)" />
    <path
       id="path259"
       d="M 292,35 H 262"
       style="fill:none;stroke:#000000;stroke-width:0.13;stroke-linecap:round;stroke-linejoin:round;stroke-miterlimit:10;stroke-dasharray:none;stroke-opacity:1"
       transform="matrix(3.7799327,0,0,-3.7779048,1142.6667,793.36)" />
    <text
       id="text259"
       xml:space="preserve"
       transform="matrix(0.24431815,0,0,0.24418708,2159.5863,73.262355)"><tspan
         id="tspan259"
         style="font-variant:normal;font-weight:normal;font-size:133px;font-family:'IBM Plex Mono';writing-mode:lr-tb;fill:#000000;fill-opacity:1;fill-rule:nonzero;stroke:none"
         x="0"
         y="0">bar</tspan></text>
    <text
       id="text260"
       xml:space="preserve"
       transform="matrix(0.24431815,0,0,0.24418708,2160.5139,101.49801)"><tspan
         id="tspan260"
         style="font-variant:normal;font-weight:normal;font-size:133px;font-family:'IBM Plex Mono';writing-mode:lr-tb;fill:#000000;fill-opacity:1;fill-rule:nonzero;stroke:none"
         x="0"
         y="0">ral</tspan></text>
    <path
       id="path260"
       d="m 262,175 h 30"
       style="fill:none;stroke:#000000;stroke-width:0.13;stroke-linecap:round;stroke-linejoin:round;stroke-miterlimit:10;stroke-dasharray:none;stroke-opacity:1"
       transform="matrix(3.7799327,0,0,-3.7779048,1142.6667,793.36)" />
    <text
       id="text261"
       xml:space="preserve"
       transform="matrix(0.32575754,0,0,0.32558277,2164.4058,733.17297)"><tspan
         id="tspan261"
         style="font-variant:normal;font-weight:normal;font-size:133px;font-family:'IBM Plex Mono';writing-mode:lr-tb;fill:#000000;fill-opacity:1;fill-rule:nonzero;stroke:none"
         x="0"
         y="0">A2</tspan></text>
    <text
       id="text262"
       xml:space="preserve"
       transform="matrix(0.04071969,0,0,0.04069785,2140.3252,143.78803)"><tspan
         id="tspan262"
         style="font-variant:normal;font-weight:600;font-size:133px;font-family:'IBM Plex Mono';writing-mode:lr-tb;fill:#000000;fill-opacity:1;fill-rule:nonzero;stroke:none"
         x="0"
         y="0">draft	by</tspan></text>
    <text
       id="text263"
       xml:space="preserve"
       transform="matrix(0.04071969,0,0,0.04069785,2140.3252,181.56708)"><tspan
         id="tspan263"
         style="font-variant:normal;font-weight:600;font-size:133px;font-family:'IBM Plex Mono';writing-mode:lr-tb;fill:#000000;fill-opacity:1;fill-rule:nonzero;stroke:none"
         x="0"
         y="0">date</tspan></text>
    <path
       id="path263"
       d="m 262,165 h 30"
       style="fill:none;stroke:#000000;stroke-width:0.13;stroke-linecap:round;stroke-linejoin:round;stroke-miterlimit:10;stroke-dasharray:none;stroke-opacity:1"
       transform="matrix(3.7799327,0,0,-3.7779048,1142.6667,793.36)" />
    <path
       id="path264"
       d="m 262,45 h 30"
       style="fill:none;stroke:#000000;stroke-width:0.13;stroke-linecap:round;stroke-linejoin:round;stroke-miterlimit:10;stroke-dasharray:none;stroke-opacity:1"
       transform="matrix(3.7799327,0,0,-3.7779048,1142.6667,793.36)" />
    <path
       id="path265"
       d="m 262,155 h 30"
       style="fill:none;stroke:#000000;stroke-width:0.13;stroke-linecap:round;stroke-linejoin:round;stroke-miterlimit:10;stroke-dasharray:none;stroke-opacity:1"
       transform="matrix(3.7799327,0,0,-3.7779048,1142.6667,793.36)" />
    <path
       id="path266"
       d="m 262,146 h 30"
       style="fill:none;stroke:#000000;stroke-width:0.13;stroke-linecap:round;stroke-linejoin:round;stroke-miterlimit:10;stroke-dasharray:none;stroke-opacity:1"
       transform="matrix(3.7799327,0,0,-3.7779048,1142.6667,793.36)" />
    <text
       id="text266"
       xml:space="preserve"
       transform="matrix(0.04886363,0,0,0.04883742,2188.6779,162.37207)"><tspan
         id="tspan266"
         style="font-variant:normal;font-weight:normal;font-size:133px;font-family:'IBM Plex Mono';writing-mode:lr-tb;fill:#000000;fill-opacity:1;fill-rule:nonzero;stroke:none"
         x="0"
         y="0">Xavier	Barral</tspan></text>
    <text
       id="text267"
       xml:space="preserve"
       transform="matrix(0.04886363,0,0,0.04883742,2204.0013,200.15112)"><tspan
         id="tspan267"
         style="font-variant:normal;font-weight:normal;font-size:133px;font-family:'IBM Plex Mono';writing-mode:lr-tb;fill:#000000;fill-opacity:1;fill-rule:nonzero;stroke:none"
         x="0"
         y="0">mars	2024</tspan></text>
    <text
       id="text268"
       xml:space="preserve"
       transform="matrix(0.12215908,0,0,0.12209354,2171.4249,650.3306)"><tspan
         id="tspan268"
         style="font-variant:normal;font-weight:normal;font-size:133px;font-family:'IBM Plex Mono';writing-mode:lr-tb;fill:#000000;fill-opacity:1;fill-rule:nonzero;stroke:none"
         x="0"
         y="0">Yöpöytä</tspan></text>
    <text
       id="text269"
       xml:space="preserve"
       transform="matrix(0.04071969,0,0,0.04069785,2140.1954,634.9697)"><tspan
         id="tspan269"
         style="font-variant:normal;font-weight:600;font-size:133px;font-family:'IBM Plex Mono';writing-mode:lr-tb;fill:#000000;fill-opacity:1;fill-rule:nonzero;stroke:none"
         x="0"
         y="0">projet</tspan></text>
    <text
       id="text270"
       xml:space="preserve"
       transform="matrix(0.04071969,0,0,0.04069785,2140.3252,219.40018)"><tspan
         id="tspan270"
         style="font-variant:normal;font-weight:600;font-size:133px;font-family:'IBM Plex Mono';writing-mode:lr-tb;fill:#000000;fill-opacity:1;fill-rule:nonzero;stroke:none"
         x="0"
         y="0">description</tspan></text>
    <text
       id="text271"
       xml:space="preserve"
       transform="matrix(0.04071969,0,0,0.04069785,2154.6522,234.50099)"><tspan
         id="tspan271"
         style="font-variant:normal;font-weight:normal;font-size:133px;font-family:'IBM Plex Mono';writing-mode:lr-tb;fill:#000000;fill-opacity:1;fill-rule:nonzero;stroke:none"
         x="0"
         y="0">axonometry</tspan></text>
    <text
       id="text272"
       xml:space="preserve"
       transform="matrix(0.04071969,0,0,0.04069785,2187.1452,234.50099)"><tspan
         id="tspan272"
         style="font-variant:normal;font-weight:normal;font-size:133px;font-family:'IBM Plex Mono';writing-mode:lr-tb;fill:#000000;fill-opacity:1;fill-rule:nonzero;stroke:none"
         x="0"
         y="0">	</tspan></text>
    <text
       id="text273"
       xml:space="preserve"
       transform="matrix(0.04071969,0,0,0.04069785,2190.3945,234.50099)"><tspan
         id="tspan273"
         style="font-variant:normal;font-weight:normal;font-size:133px;font-family:'IBM Plex Mono';writing-mode:lr-tb;fill:#000000;fill-opacity:1;fill-rule:nonzero;stroke:none"
         x="0"
         y="0">of</tspan></text>
    <text
       id="text274"
       xml:space="preserve"
       transform="matrix(0.04071969,0,0,0.04069785,2196.8931,234.50099)"><tspan
         id="tspan274"
         style="font-variant:normal;font-weight:normal;font-size:133px;font-family:'IBM Plex Mono';writing-mode:lr-tb;fill:#000000;fill-opacity:1;fill-rule:nonzero;stroke:none"
         x="0"
         y="0">	</tspan></text>
    <text
       id="text275"
       xml:space="preserve"
       transform="matrix(0.04071969,0,0,0.04069785,2200.1424,234.50099)"><tspan
         id="tspan275"
         style="font-variant:normal;font-weight:normal;font-size:133px;font-family:'IBM Plex Mono';writing-mode:lr-tb;fill:#000000;fill-opacity:1;fill-rule:nonzero;stroke:none"
         x="0"
         y="0">the</tspan></text>
    <text
       id="text276"
       xml:space="preserve"
       transform="matrix(0.04071969,0,0,0.04069785,2209.8903,234.50099)"><tspan
         id="tspan276"
         style="font-variant:normal;font-weight:normal;font-size:133px;font-family:'IBM Plex Mono';writing-mode:lr-tb;fill:#000000;fill-opacity:1;fill-rule:nonzero;stroke:none"
         x="0"
         y="0">	</tspan></text>
    <text
       id="text277"
       xml:space="preserve"
       transform="matrix(0.04071969,0,0,0.04069785,2213.1397,234.50099)"><tspan
         id="tspan277"
         style="font-variant:normal;font-weight:normal;font-size:133px;font-family:'IBM Plex Mono';writing-mode:lr-tb;fill:#000000;fill-opacity:1;fill-rule:nonzero;stroke:none"
         x="0"
         y="0">jointery</tspan></text>
    <path
       id="path277"
       d="m 75.848873,186.01892 4.045498,-2.54196 -4.045498,-1.03659 v 10.99162 l -3.034124,-0.77744 v -54.9581 l 5.056873,1.29574 v -5.49581 l -5.056873,-1.29573 -6.458494,4.05815 5.056873,1.29573 v 1.02262"
       style="fill:none;stroke:#000000;stroke-width:0.18;stroke-linecap:round;stroke-linejoin:round;stroke-miterlimit:10;stroke-dasharray:none;stroke-opacity:1"
       transform="matrix(3.7799327,0,0,-3.7779048,1142.6667,793.36)" />
    <path
       id="path278"
       d="m 73.435878,194.94818 v 3.57855 l 6.458493,-4.05815 3.034124,0.77744 V 45.916244 l -3.034124,-3.257261"
       style="fill:none;stroke:#000000;stroke-width:0.18;stroke-linecap:round;stroke-linejoin:round;stroke-miterlimit:10;stroke-dasharray:none;stroke-opacity:1"
       transform="matrix(3.7799327,0,0,-3.7779048,1142.6667,793.36)" />
    <path
       id="path279"
       d="m 75.848873,193.43199 -6.458494,4.05815 -3.034124,-0.77744 6.458494,-4.05815"
       style="fill:none;stroke:#000000;stroke-width:0.18;stroke-linecap:round;stroke-linejoin:round;stroke-miterlimit:10;stroke-dasharray:none;stroke-opacity:1"
       transform="matrix(3.7799327,0,0,-3.7779048,1142.6667,793.36)" />
    <path
       id="path280"
       d="m 66.356255,196.7127 v -54.9581 l 6.458494,-4.05815"
       style="fill:none;stroke:#000000;stroke-width:0.18;stroke-linecap:round;stroke-linejoin:round;stroke-miterlimit:10;stroke-dasharray:none;stroke-opacity:1"
       transform="matrix(3.7799327,0,0,-3.7779048,1142.6667,793.36)" />
    <path
       id="path281"
       d="m 186.43555,127.52417 1.57702,1.693 -3.03412,-0.77744 2.67519,-1.68094 v -10.99162 l -4.04549,-1.03659 v 10.99162 l 4.04549,1.03659"
       style="fill:none;stroke:#000000;stroke-width:0.18;stroke-linecap:round;stroke-linejoin:round;stroke-miterlimit:10;stroke-dasharray:none;stroke-opacity:1"
       transform="matrix(3.7799327,0,0,-3.7779048,1142.6667,793.36)" />
    <path
       id="path282"
       d="m 188.01257,129.21717 -87.74371,55.13316 -3.034124,-0.77745 -6.458494,4.05815 -4.045498,-1.03659 v -10.99162 l 3.424369,-2.15167"
       style="fill:none;stroke:#000000;stroke-width:0.18;stroke-linecap:round;stroke-linejoin:round;stroke-miterlimit:10;stroke-dasharray:none;stroke-opacity:1"
       transform="matrix(3.7799327,0,0,-3.7779048,1142.6667,793.36)" />
    <path
       id="path283"
       d="m 90.155113,180.25756 -0.195122,0.18595 -0.297168,0.0903 -0.273688,-0.13399 -0.179774,-0.35283 -0.05668,-0.47012 0.05668,-0.54136 0.179774,-0.57875 0.273688,-0.47792 0.297168,-0.28319 0.195122,-0.0593"
       style="fill:none;stroke:#000000;stroke-width:0.18;stroke-linecap:round;stroke-linejoin:round;stroke-miterlimit:10;stroke-dasharray:none;stroke-opacity:1"
       transform="matrix(3.7799327,0,0,-3.7779048,1142.6667,793.36)" />
    <path
       id="path284"
       d="m 183.60815,114.73058 -9.13369,5.73909 -3.03413,-0.77744 6.4585,6.93347 -87.743717,55.13315 3.034124,0.77744 -6.458493,4.05815"
       style="fill:none;stroke:#000000;stroke-width:0.18;stroke-linecap:round;stroke-linejoin:round;stroke-miterlimit:10;stroke-dasharray:none;stroke-opacity:1"
       transform="matrix(3.7799327,0,0,-3.7779048,1142.6667,793.36)" />
    <path
       id="path285"
       d="m 200.18875,115.30389 2.1027,2.25734 3.03412,0.77744 2.6752,-1.68094 -3.03412,-0.77744 -2.6752,1.68094"
       style="fill:none;stroke:#000000;stroke-width:0.18;stroke-linecap:round;stroke-linejoin:round;stroke-miterlimit:10;stroke-dasharray:none;stroke-opacity:1"
       transform="matrix(3.7799327,0,0,-3.7779048,1142.6667,793.36)" />
    <path
       id="path286"
       d="m 200.92115,107.43063 4.0455,-2.54196 -4.0455,-1.03659 -3.03412,-0.77745 -25.83398,-27.733871 -9.13369,5.73909 32.29247,34.667341 2.6752,-1.68094 v -10.99162"
       style="fill:none;stroke:#000000;stroke-width:0.18;stroke-linecap:round;stroke-linejoin:round;stroke-miterlimit:10;stroke-dasharray:none;stroke-opacity:1"
       transform="matrix(3.7799327,0,0,-3.7779048,1142.6667,793.36)" />
    <path
       id="path287"
       d="m 204.96665,115.88029 v -10.99162 l 3.03412,0.77744 -90.41891,-97.0685636 -3.03412,-0.7774429 -4.0455,-1.0365905 -3.03412,-0.7774428 -6.4585,4.0581498 v 4.552877 l 58.68049,62.996017 9.13369,-5.73909 5.05688,1.295738 -9.13369,5.73909 0.60087,0.645065"
       style="fill:none;stroke:#000000;stroke-width:0.18;stroke-linecap:round;stroke-linejoin:round;stroke-miterlimit:10;stroke-dasharray:none;stroke-opacity:1"
       transform="matrix(3.7799327,0,0,-3.7779048,1142.6667,793.36)" />
    <path
       id="path288"
       d="M 82.928495,45.916244 79.894371,45.138801 V 29.594306 l -4.045498,-1.036591 -6.458494,4.05815 v 4.552877 l -3.034124,-0.777443 6.458494,6.933469 v 88.875882"
       style="fill:none;stroke:#000000;stroke-width:0.18;stroke-linecap:round;stroke-linejoin:round;stroke-miterlimit:10;stroke-dasharray:none;stroke-opacity:1"
       transform="matrix(3.7799327,0,0,-3.7779048,1142.6667,793.36)" />
    <path
       id="path289"
       d="M 75.848873,28.557715 V 44.102211 L 72.814749,43.324768"
       style="fill:none;stroke:#000000;stroke-width:0.18;stroke-linecap:round;stroke-linejoin:round;stroke-miterlimit:10;stroke-dasharray:none;stroke-opacity:1"
       transform="matrix(3.7799327,0,0,-3.7779048,1142.6667,793.36)" />
    <path
       id="path290"
       d="m 82.928495,195.24602 -6.458494,4.05815 -3.034123,-0.77744"
       style="fill:none;stroke:#000000;stroke-width:0.18;stroke-linecap:round;stroke-linejoin:round;stroke-miterlimit:10;stroke-dasharray:none;stroke-opacity:1"
       transform="matrix(3.7799327,0,0,-3.7779048,1142.6667,793.36)" />
    <path
       id="path291"
       d="m 195.21183,115.74719 3.03412,0.77745 2.6752,-1.68094 -3.03412,-0.77745"
       style="fill:none;stroke:#000000;stroke-width:0.18;stroke-linecap:round;stroke-linejoin:round;stroke-miterlimit:10;stroke-dasharray:none;stroke-opacity:1"
       transform="matrix(3.7799327,0,0,-3.7779048,1142.6667,793.36)" />
    <path
       id="path292"
       d="m 173.88068,73.169762 3.22924,3.466735 -5.05687,-1.295738"
       style="fill:none;stroke:#000000;stroke-width:0.18;stroke-linecap:round;stroke-linejoin:round;stroke-miterlimit:10;stroke-dasharray:none;stroke-opacity:1"
       transform="matrix(3.7799327,0,0,-3.7779048,1142.6667,793.36)" />
    <path
       id="path293"
       d="m 174.47446,120.46967 6.45849,6.93347 -3.03412,-0.77744"
       style="fill:none;stroke:#000000;stroke-width:0.18;stroke-linecap:round;stroke-linejoin:round;stroke-miterlimit:10;stroke-dasharray:none;stroke-opacity:1"
       transform="matrix(3.7799327,0,0,-3.7779048,1142.6667,793.36)" />
    <path
       id="path294"
       d="m 90.155113,181.75885 v -10.99162 l 81.285217,-51.075"
       style="fill:none;stroke:#000000;stroke-width:0.18;stroke-linecap:round;stroke-linejoin:round;stroke-miterlimit:10;stroke-dasharray:none;stroke-opacity:1"
       transform="matrix(3.7799327,0,0,-3.7779048,1142.6667,793.36)" />
    <path
       id="path295"
       d="m 69.288335,188.09705 0.297167,-0.28319 0.297167,-0.0903 0.273689,0.13399 0.179773,0.35283 0.05668,0.47012 -0.05668,0.54136 -0.179773,0.57875 -0.273689,0.47792 -0.297167,0.28319 -0.297167,0.0903 -0.273688,-0.13398 -0.179774,-0.35283 -0.05668,-0.47013 0.05668,-0.54136 0.179774,-0.57875 z"
       style="fill:none;stroke:#000000;stroke-width:0.18;stroke-linecap:round;stroke-linejoin:round;stroke-miterlimit:10;stroke-dasharray:none;stroke-opacity:1"
       transform="matrix(3.7799327,0,0,-3.7779048,1142.6667,793.36)" />
    <path
       id="path296"
       d="m 182.07535,120.08557 -0.17977,0.57875 -0.27369,0.47792 -0.29717,0.28319 -0.29716,0.0903 -0.27369,-0.13399 -0.17978,-0.35283 -0.0567,-0.47012 0.0567,-0.54136 0.17978,-0.57875 0.27369,-0.47792 0.29716,-0.28319 0.29717,-0.0903 0.27369,0.13398 0.17977,0.35283 0.0567,0.47013 z"
       style="fill:none;stroke:#000000;stroke-width:0.18;stroke-linecap:round;stroke-linejoin:round;stroke-miterlimit:10;stroke-dasharray:none;stroke-opacity:1"
       transform="matrix(3.7799327,0,0,-3.7779048,1142.6667,793.36)" />
    <path
       id="path297"
       d="m 195.6036,111.37917 -0.29716,0.0902 -0.27369,-0.13398 -0.17978,-0.35283 -0.0567,-0.47013 0.0567,-0.54136 0.17978,-0.57874 0.27369,-0.47793 0.29716,-0.28319 0.29717,-0.0902 0.27369,0.13398 0.17977,0.35283 0.0567,0.47013 -0.0567,0.54136 -0.17977,0.57874 -0.27369,0.47793 z"
       style="fill:none;stroke:#000000;stroke-width:0.18;stroke-linecap:round;stroke-linejoin:round;stroke-miterlimit:10;stroke-dasharray:none;stroke-opacity:1"
       transform="matrix(3.7799327,0,0,-3.7779048,1142.6667,793.36)" />
    <path
       id="path298"
       d="m 219.7036,117.55438 -0.29716,0.0903 -0.27369,-0.13398 -0.17978,-0.35283 -0.0567,-0.47013 0.0567,-0.54136 0.17978,-0.57874 0.27369,-0.47793 0.29716,-0.28319 0.29717,-0.0902 0.27369,0.13398 0.17977,0.35283 0.0567,0.47012 -0.0567,0.54136 -0.17977,0.57875 -0.27369,0.47792 -0.29717,0.28319 z"
       style="fill:none;stroke:#000000;stroke-width:0.18;stroke-linecap:round;stroke-linejoin:round;stroke-miterlimit:10;stroke-dasharray:none;stroke-opacity:1"
       transform="matrix(3.7799327,0,0,-3.7779048,1142.6667,793.36)" />
    <path
       id="path299"
       d="m 230.11452,117.3077 0.27369,0.13398 0.17977,0.35283 0.0567,0.47013 -0.0567,0.54136 -0.17977,0.57875 -0.27369,0.47792 -0.29717,0.28319 -0.29717,0.0903"
       style="fill:none;stroke:#000000;stroke-width:0.18;stroke-linecap:round;stroke-linejoin:round;stroke-miterlimit:10;stroke-dasharray:none;stroke-opacity:1"
       transform="matrix(3.7799327,0,0,-3.7779048,1142.6667,793.36)" />
    <path
       id="path300"
       d="m 93.868124,196.78378 -0.297167,0.0902 -0.273688,-0.13398 -0.179774,-0.35283 -0.05668,-0.47013 0.05668,-0.54136 0.179774,-0.57874 0.273688,-0.47793 0.297167,-0.28319 0.297167,-0.0902 0.273689,0.13398 0.179773,0.35283 0.05668,0.47012 -0.05668,0.54137 -0.179773,0.57874 -0.273689,0.47792 z"
       style="fill:none;stroke:#000000;stroke-width:0.18;stroke-linecap:round;stroke-linejoin:round;stroke-miterlimit:10;stroke-dasharray:none;stroke-opacity:1"
       transform="matrix(3.7799327,0,0,-3.7779048,1142.6667,793.36)" />
    <path
       id="path301"
       d="m 104.27904,196.53709 0.27369,0.13399 0.17977,0.35282 0.0567,0.47013 -0.0567,0.54136 -0.17977,0.57875 -0.27369,0.47792 -0.29717,0.28319 -0.29717,0.0903"
       style="fill:none;stroke:#000000;stroke-width:0.18;stroke-linecap:round;stroke-linejoin:round;stroke-miterlimit:10;stroke-dasharray:none;stroke-opacity:1"
       transform="matrix(3.7799327,0,0,-3.7779048,1142.6667,793.36)" />
    <path
       id="path302"
       d="m 50.616491,30.208935 -0.297167,0.09026 -0.273689,-0.133984 -0.179773,-0.352827 -0.05668,-0.470128 0.05668,-0.541361 0.179773,-0.578746 0.273689,-0.477924 0.297167,-0.28319 0.297167,-0.09026 0.273688,0.133984 0.179774,0.352827 0.05668,0.470128 -0.05668,0.541361 -0.179774,0.578746 -0.273688,0.477924 z"
       style="fill:none;stroke:#000000;stroke-width:0.18;stroke-linecap:round;stroke-linejoin:round;stroke-miterlimit:10;stroke-dasharray:none;stroke-opacity:1"
       transform="matrix(3.7799327,0,0,-3.7779048,1142.6667,793.36)" />
    <path
       id="path303"
       d="m 61.027404,29.962252 0.273688,0.133983 0.179774,0.352827 0.05668,0.470129 -0.05668,0.54136 -0.179774,0.578746 -0.273688,0.477924 -0.297167,0.283191 -0.297167,0.09025"
       style="fill:none;stroke:#000000;stroke-width:0.18;stroke-linecap:round;stroke-linejoin:round;stroke-miterlimit:10;stroke-dasharray:none;stroke-opacity:1"
       transform="matrix(3.7799327,0,0,-3.7779048,1142.6667,793.36)" />
    <path
       id="path304"
       d="m 103.66801,11.308431 0.27369,-0.477924 0.29717,-0.283191 0.29717,-0.09026 0.27368,0.133984 0.17978,0.352827 0.0567,0.470128 -0.0567,0.541361 -0.17978,0.578746 -0.27368,0.477924 -0.29717,0.28319 -0.29717,0.09026 -0.27369,-0.133984 -0.17977,-0.352827 -0.0567,-0.470128 0.0567,-0.541361 0.17977,-0.578746 z"
       style="fill:none;stroke:#000000;stroke-width:0.18;stroke-linecap:round;stroke-linejoin:round;stroke-miterlimit:10;stroke-dasharray:none;stroke-opacity:1"
       transform="matrix(3.7799327,0,0,-3.7779048,1142.6667,793.36)" />
    <path
       id="path305"
       d="m 76.962292,189.53764 0.273688,0.13398 0.179773,0.35283 0.05668,0.47013 -0.05668,0.54136 -0.179773,0.57874 -0.273688,0.47793 -0.297168,0.28319 -0.297167,0.0902 -0.273688,-0.13398 -0.179774,-0.35283 -0.05668,-0.47013 0.05668,-0.54136 0.179774,-0.57874 0.273688,-0.47793 0.297167,-0.28319 z"
       style="fill:none;stroke:#000000;stroke-width:0.18;stroke-linecap:round;stroke-linejoin:round;stroke-miterlimit:10;stroke-dasharray:none;stroke-opacity:1"
       transform="matrix(3.7799327,0,0,-3.7779048,1142.6667,793.36)" />
    <path
       id="path306"
       d="m 203.43385,111.85334 -0.17977,0.57875 -0.27369,0.47792 -0.29717,0.28319 -0.29716,0.0903 -0.27369,-0.13399 -0.17977,-0.35282 -0.0567,-0.47013 0.0567,-0.54136 0.17977,-0.57875 0.27369,-0.47792 0.29716,-0.28319 0.29717,-0.0903 0.27369,0.13398 0.17977,0.35283 0.0567,0.47013 z"
       style="fill:none;stroke:#000000;stroke-width:0.18;stroke-linecap:round;stroke-linejoin:round;stroke-miterlimit:10;stroke-dasharray:none;stroke-opacity:1"
       transform="matrix(3.7799327,0,0,-3.7779048,1142.6667,793.36)" />
    <path
       id="path307"
       d="m 76.441322,162.16339 -0.450429,-0.86067 -0.14202,-0.84558 0.14202,-0.77281 0.450429,-0.62984 0.685737,-0.31382 0.744563,0.0364 0.744563,0.34513 0.685737,0.66523 0.450428,0.86067 0.142021,0.84558 -0.142021,0.77281 -0.450428,0.62984 -0.685737,0.31382 -0.744563,-0.0364 -0.744563,-0.34513 z"
       style="fill:none;stroke:#000000;stroke-width:0.18;stroke-linecap:round;stroke-linejoin:round;stroke-miterlimit:10;stroke-dasharray:none;stroke-opacity:1"
       transform="matrix(3.7799327,0,0,-3.7779048,1142.6667,793.36)" />
    <path
       id="path308"
       d="m 76.168707,161.03898 0.318598,0.93979 0.819199,0.5883 0.789616,-0.14392 0.34818,-0.80109 -0.318597,-0.93979 -0.819199,-0.58831 -0.789617,0.14393 z"
       style="fill:none;stroke:#000000;stroke-width:0.18;stroke-linecap:round;stroke-linejoin:round;stroke-miterlimit:10;stroke-dasharray:none;stroke-opacity:1"
       transform="matrix(3.7799327,0,0,-3.7779048,1142.6667,793.36)" />
    <path
       id="path309"
       d="m 71.812314,34.980183 0.05668,-0.541361 0.179773,-0.578746 0.273689,-0.477924 0.297167,-0.28319 0.297167,-0.09026 0.273688,0.133984 0.179774,0.352827 0.05668,0.470128 -0.05668,0.541361 -0.179774,0.578746 -0.273688,0.477924 -0.297167,0.28319 -0.297167,0.09026 -0.273689,-0.133984 -0.179773,-0.352827 z"
       style="fill:none;stroke:#000000;stroke-width:0.18;stroke-linecap:round;stroke-linejoin:round;stroke-miterlimit:10;stroke-dasharray:none;stroke-opacity:1"
       transform="matrix(3.7799327,0,0,-3.7779048,1142.6667,793.36)" />
    <path
       id="path310"
       d="M 200.92115,103.85208 V 114.8437"
       style="fill:none;stroke:#000000;stroke-width:0.18;stroke-linecap:round;stroke-linejoin:round;stroke-miterlimit:10;stroke-dasharray:none;stroke-opacity:1"
       transform="matrix(3.7799327,0,0,-3.7779048,1142.6667,793.36)" />
    <path
       id="path311"
       d="M 79.894371,194.46858 V 183.47696"
       style="fill:none;stroke:#000000;stroke-width:0.18;stroke-linecap:round;stroke-linejoin:round;stroke-miterlimit:10;stroke-dasharray:none;stroke-opacity:1"
       transform="matrix(3.7799327,0,0,-3.7779048,1142.6667,793.36)" />
    <path
       id="path312"
       d="m 77.871622,133.49638 -6.458494,4.05815"
       style="fill:none;stroke:#000000;stroke-width:0.18;stroke-linecap:round;stroke-linejoin:round;stroke-miterlimit:10;stroke-dasharray:none;stroke-opacity:1"
       transform="matrix(3.7799327,0,0,-3.7779048,1142.6667,793.36)" />
    <path
       id="path313"
       d="m 180.93295,127.40314 2.6752,-1.68094"
       style="fill:none;stroke:#000000;stroke-width:0.18;stroke-linecap:round;stroke-linejoin:round;stroke-miterlimit:10;stroke-dasharray:none;stroke-opacity:1"
       transform="matrix(3.7799327,0,0,-3.7779048,1142.6667,793.36)" />
    <path
       id="path314"
       d="m 208.00077,105.66611 v 10.99162"
       style="fill:none;stroke:#000000;stroke-width:0.18;stroke-linecap:round;stroke-linejoin:round;stroke-miterlimit:10;stroke-dasharray:none;stroke-opacity:1"
       transform="matrix(3.7799327,0,0,-3.7779048,1142.6667,793.36)" />
    <path
       id="path315"
       d="M 66.356255,136.2588 V 36.391299"
       style="fill:none;stroke:#000000;stroke-width:0.18;stroke-linecap:round;stroke-linejoin:round;stroke-miterlimit:10;stroke-dasharray:none;stroke-opacity:1"
       transform="matrix(3.7799327,0,0,-3.7779048,1142.6667,793.36)" />
    <path
       id="path316"
       d="M 75.848873,44.102211 69.390379,37.168742"
       style="fill:none;stroke:#000000;stroke-width:0.18;stroke-linecap:round;stroke-linejoin:round;stroke-miterlimit:10;stroke-dasharray:none;stroke-opacity:1"
       transform="matrix(3.7799327,0,0,-3.7779048,1142.6667,793.36)" />
    <path
       id="path317"
       d="m 159.69011,77.613114 5.05688,1.295738"
       style="fill:none;stroke:#000000;stroke-width:0.18;stroke-linecap:round;stroke-linejoin:round;stroke-miterlimit:10;stroke-dasharray:none;stroke-opacity:1"
       transform="matrix(3.7799327,0,0,-3.7779048,1142.6667,793.36)" />
    <path
       id="path318"
       d="M 107.46812,6.0060702 168.8238,71.874024"
       style="fill:none;stroke:#000000;stroke-width:0.18;stroke-linecap:round;stroke-linejoin:round;stroke-miterlimit:10;stroke-dasharray:none;stroke-opacity:1"
       transform="matrix(3.7799327,0,0,-3.7779048,1142.6667,793.36)" />
    <path
       id="path319"
       d="m 177.89883,126.6257 1.84154,-1.15712 m 1.04845,-0.65879 2.09691,-1.31758 m 1.04846,-0.65879 2.09691,-1.31758 m 1.04846,-0.65879 2.09691,-1.31758 m 1.04845,-0.65879 2.09691,-1.31758 m 1.04846,-0.65879 1.84154,-1.15712"
       style="fill:none;stroke:#000000;stroke-width:0.13;stroke-linecap:round;stroke-linejoin:round;stroke-miterlimit:10;stroke-dasharray:none;stroke-opacity:1"
       transform="matrix(3.7799327,0,0,-3.7779048,1142.6667,793.36)" />
    <path
       id="path320"
       d="m 188.01257,129.21717 1.84154,-1.15712 m 1.04846,-0.65878 2.09691,-1.31758 m 1.04845,-0.65879 2.09692,-1.31758 m 1.04845,-0.65879 2.09691,-1.31758 m 1.04846,-0.65879 2.09691,-1.31758 m 1.04845,-0.65879 1.84154,-1.15712"
       style="fill:none;stroke:#000000;stroke-width:0.13;stroke-linecap:round;stroke-linejoin:round;stroke-miterlimit:10;stroke-dasharray:none;stroke-opacity:1"
       transform="matrix(3.7799327,0,0,-3.7779048,1142.6667,793.36)" />
    <path
       id="path321"
       d="m 171.44033,119.69223 1.84154,-1.15712 m 1.04846,-0.65879 2.09691,-1.31758 m 1.04845,-0.65879 2.09692,-1.31758 m 1.04845,-0.65879 2.09691,-1.31758 m 1.04846,-0.65879 2.09691,-1.31758 m 1.04846,-0.65879 1.84154,-1.15712"
       style="fill:none;stroke:#000000;stroke-width:0.13;stroke-linecap:round;stroke-linejoin:round;stroke-miterlimit:10;stroke-dasharray:none;stroke-opacity:1"
       transform="matrix(3.7799327,0,0,-3.7779048,1142.6667,793.36)" />
    <path
       id="path322"
       d="m 187.65364,115.76717 1.86548,-1.17216 m 1.04846,-0.65879 1.86548,-1.17216"
       style="fill:none;stroke:#000000;stroke-width:0.13;stroke-linecap:round;stroke-linejoin:round;stroke-miterlimit:10;stroke-dasharray:none;stroke-opacity:1"
       transform="matrix(3.7799327,0,0,-3.7779048,1142.6667,793.36)" />
    <path
       id="path323"
       d="m 100.26886,184.35033 -1.855221,1.16571 m -1.048456,0.65879 -2.096911,1.31758 m -1.048456,0.65879 -2.096911,1.31758 m -1.048456,0.65879 -2.096911,1.31758 m -1.048455,0.65879 -2.096911,1.31758 m -1.048456,0.65879 -1.855221,1.16571"
       style="fill:none;stroke:#000000;stroke-width:0.13;stroke-linecap:round;stroke-linejoin:round;stroke-miterlimit:10;stroke-dasharray:none;stroke-opacity:1"
       transform="matrix(3.7799327,0,0,-3.7779048,1142.6667,793.36)" />
    <path
       id="path324"
       d="m 72.814749,192.65455 1.855221,-1.16572 m 1.048455,-0.65879 2.096912,-1.31758 m 1.048455,-0.65879 2.096911,-1.31758 m 1.048456,-0.65879 2.096911,-1.31758 m 1.048456,-0.65879 2.096911,-1.31758 m 1.048455,-0.65879 1.855221,-1.16571"
       style="fill:none;stroke:#000000;stroke-width:0.13;stroke-linecap:round;stroke-linejoin:round;stroke-miterlimit:10;stroke-dasharray:none;stroke-opacity:1"
       transform="matrix(3.7799327,0,0,-3.7779048,1142.6667,793.36)" />
    <path
       id="path325"
       d="m 72.814749,181.66293 1.855221,-1.16572 m 1.048455,-0.65879 2.096912,-1.31758 m 1.048455,-0.65879 2.096911,-1.31758 m 1.048456,-0.65879 2.096911,-1.31757 m 1.048456,-0.65879 2.096911,-1.31758 m 1.048455,-0.65879 1.855221,-1.16572"
       style="fill:none;stroke:#000000;stroke-width:0.13;stroke-linecap:round;stroke-linejoin:round;stroke-miterlimit:10;stroke-dasharray:none;stroke-opacity:1"
       transform="matrix(3.7799327,0,0,-3.7779048,1142.6667,793.36)" />
    <path
       id="path326"
       d="m 107.46812,21.550566 -1.07563,0.67586 m -1.04845,0.658789 -2.09691,1.31758 m -1.04846,0.65879 -2.09691,1.317579 m -1.048455,0.65879 -2.096911,1.317579 m -1.048456,0.65879 -2.096911,1.31758 m -1.048456,0.65879 -2.096911,1.317579 m -1.048455,0.65879 -2.096911,1.317579 m -1.048456,0.65879 -2.096911,1.31758 M 83.326471,36.7198 81.22956,38.03738 m -1.048456,0.65879 -2.096911,1.317579 m -1.048455,0.65879 -2.096911,1.31758 m -1.048456,0.65879 -1.075622,0.675859"
       style="fill:none;stroke:#000000;stroke-width:0.13;stroke-linecap:round;stroke-linejoin:round;stroke-miterlimit:10;stroke-dasharray:none;stroke-opacity:1"
       transform="matrix(3.7799327,0,0,-3.7779048,1142.6667,793.36)" />
    <path
       id="path327"
       d="m 112.72486,27.193906 -1.79249,1.126297 m -1.04845,0.658789 -2.09691,1.31758 m -1.04846,0.65879 -2.09691,1.317579 m -1.04846,0.65879 -2.09691,1.31758 m -1.04845,0.65879 -2.096915,1.317579 m -1.048455,0.65879 -2.096911,1.317579 m -1.048456,0.65879 -2.096911,1.31758 m -1.048456,0.658789 -2.096911,1.31758 m -1.048455,0.65879 -2.096912,1.317579 m -1.048455,0.65879 -1.792488,1.126297"
       style="fill:none;stroke:#000000;stroke-width:0.13;stroke-linecap:round;stroke-linejoin:round;stroke-miterlimit:10;stroke-dasharray:none;stroke-opacity:1"
       transform="matrix(3.7799327,0,0,-3.7779048,1142.6667,793.36)" />
    <path
       id="path328"
       d="m 102.01415,15.695498 -1.09956,0.690901 m -1.048458,0.65879 -2.096911,1.317579 m -1.048456,0.65879 -2.096911,1.31758 m -1.048456,0.658789 -2.096911,1.31758 m -1.048455,0.65879 -2.096911,1.317579 m -1.048456,0.65879 -2.096911,1.31758 m -1.048456,0.658789 -2.096911,1.31758 m -1.048455,0.65879 -1.099561,0.690901"
       style="fill:none;stroke:#000000;stroke-width:0.13;stroke-linecap:round;stroke-linejoin:round;stroke-miterlimit:10;stroke-dasharray:none;stroke-opacity:1"
       transform="matrix(3.7799327,0,0,-3.7779048,1142.6667,793.36)" />
    <path
       id="path329"
       d="m 101.00962,12.748133 -1.047361,0.658104 m -1.048456,0.65879 -2.096911,1.317579 m -1.048455,0.65879 -2.096912,1.317579 m -1.048455,0.65879 -2.096911,1.31758 m -1.048456,0.658789 -2.096911,1.31758 m -1.048456,0.65879 -2.096911,1.317579 m -1.048455,0.65879 -2.096912,1.31758 m -1.048455,0.658789 -2.096911,1.31758 m -1.048456,0.65879 -1.047363,0.658103"
       style="fill:none;stroke:#000000;stroke-width:0.13;stroke-linecap:round;stroke-linejoin:round;stroke-miterlimit:10;stroke-dasharray:none;stroke-opacity:1"
       transform="matrix(3.7799327,0,0,-3.7779048,1142.6667,793.36)" />
    <path
       id="path330"
       d="m 220.00077,114.71623 10.11375,2.59147"
       style="fill:none;stroke:#000000;stroke-width:0.18;stroke-linecap:round;stroke-linejoin:round;stroke-miterlimit:10;stroke-dasharray:none;stroke-opacity:1"
       transform="matrix(3.7799327,0,0,-3.7779048,1142.6667,793.36)" />
    <path
       id="path331"
       d="m 219.40644,117.64464 10.11374,2.59148"
       style="fill:none;stroke:#000000;stroke-width:0.18;stroke-linecap:round;stroke-linejoin:round;stroke-miterlimit:10;stroke-dasharray:none;stroke-opacity:1"
       transform="matrix(3.7799327,0,0,-3.7779048,1142.6667,793.36)" />
    <path
       id="path332"
       d="m 94.165291,193.94562 10.113749,2.59147"
       style="fill:none;stroke:#000000;stroke-width:0.18;stroke-linecap:round;stroke-linejoin:round;stroke-miterlimit:10;stroke-dasharray:none;stroke-opacity:1"
       transform="matrix(3.7799327,0,0,-3.7779048,1142.6667,793.36)" />
    <path
       id="path333"
       d="m 93.570957,196.87403 10.113743,2.59148"
       style="fill:none;stroke:#000000;stroke-width:0.18;stroke-linecap:round;stroke-linejoin:round;stroke-miterlimit:10;stroke-dasharray:none;stroke-opacity:1"
       transform="matrix(3.7799327,0,0,-3.7779048,1142.6667,793.36)" />
    <path
       id="path334"
       d="m 50.913658,27.370775 10.113746,2.591477"
       style="fill:none;stroke:#000000;stroke-width:0.18;stroke-linecap:round;stroke-linejoin:round;stroke-miterlimit:10;stroke-dasharray:none;stroke-opacity:1"
       transform="matrix(3.7799327,0,0,-3.7779048,1142.6667,793.36)" />
    <path
       id="path335"
       d="M 50.319324,30.299191 60.43307,32.890667"
       style="fill:none;stroke:#000000;stroke-width:0.18;stroke-linecap:round;stroke-linejoin:round;stroke-miterlimit:10;stroke-dasharray:none;stroke-opacity:1"
       transform="matrix(3.7799327,0,0,-3.7779048,1142.6667,793.36)" />
    <path
       id="path336"
       d="m 82.928495,194.14708 1.122984,0.28775 m 1.199499,0.30735 2.398998,0.6147 m 1.1995,0.30735 2.398998,0.6147 m 1.199499,0.30735 1.122984,0.28775"
       style="fill:none;stroke:#000000;stroke-width:0.13;stroke-linecap:round;stroke-linejoin:round;stroke-miterlimit:10;stroke-dasharray:none;stroke-opacity:1"
       transform="matrix(3.7799327,0,0,-3.7779048,1142.6667,793.36)" />
    <path
       id="path337"
       d="m 94.165291,193.94562 -1.420151,-0.36389 m -1.199499,-0.30736 -2.398998,-0.6147 m -1.199499,-0.30735 -2.398999,-0.6147 m -1.199499,-0.30735 -1.420151,-0.36389"
       style="fill:none;stroke:#000000;stroke-width:0.13;stroke-linecap:round;stroke-linejoin:round;stroke-miterlimit:10;stroke-dasharray:none;stroke-opacity:1"
       transform="matrix(3.7799327,0,0,-3.7779048,1142.6667,793.36)" />
    <path
       id="path338"
       d="m 219.40644,117.64464 -1.50459,-0.38552 m -1.1995,-0.30736 -2.399,-0.6147 m -1.1995,-0.30735 -2.39899,-0.6147 m -1.1995,-0.30735 -1.50459,-0.38553"
       style="fill:none;stroke:#000000;stroke-width:0.13;stroke-linecap:round;stroke-linejoin:round;stroke-miterlimit:10;stroke-dasharray:none;stroke-opacity:1"
       transform="matrix(3.7799327,0,0,-3.7779048,1142.6667,793.36)" />
    <path
       id="path339"
       d="m 208.00077,111.64143 1.80175,0.46167 m 1.1995,0.30735 2.399,0.6147 m 1.1995,0.30735 2.399,0.61471 m 1.1995,0.30735 1.80175,0.46167"
       style="fill:none;stroke:#000000;stroke-width:0.13;stroke-linecap:round;stroke-linejoin:round;stroke-miterlimit:10;stroke-dasharray:none;stroke-opacity:1"
       transform="matrix(3.7799327,0,0,-3.7779048,1142.6667,793.36)" />
    <path
       id="path340"
       d="M 72.322459,35.937122 70.576011,35.489624 M 69.376512,35.182273 66.977514,34.56757 M 65.778015,34.260219 63.379016,33.645516 M 62.179517,33.338165 60.43307,32.890667"
       style="fill:none;stroke:#000000;stroke-width:0.13;stroke-linecap:round;stroke-linejoin:round;stroke-miterlimit:10;stroke-dasharray:none;stroke-opacity:1"
       transform="matrix(3.7799327,0,0,-3.7779048,1142.6667,793.36)" />
    <path
       id="path341"
       d="m 61.027404,29.962252 1.746447,0.447497 m 1.1995,0.307352 2.398998,0.614702 m 1.199499,0.307352 2.398998,0.614702 m 1.1995,0.307352 1.746447,0.447497"
       style="fill:none;stroke:#000000;stroke-width:0.13;stroke-linecap:round;stroke-linejoin:round;stroke-miterlimit:10;stroke-dasharray:none;stroke-opacity:1"
       transform="matrix(3.7799327,0,0,-3.7779048,1142.6667,793.36)" />
  </g>
</svg>
